<mxfile host="app.diagrams.net" modified="2023-01-17T16:02:40.105Z" agent="5.0 (Windows NT 10.0; Win64; x64) AppleWebKit/537.36 (KHTML, like Gecko) Chrome/108.0.0.0 Safari/537.36" etag="Ihrhtf4-jXIJpCXvivsZ" version="20.8.5" type="github">
  <diagram id="sQuSlrcKvVO8Q4xEA5H8" name="Page-1">
    <mxGraphModel dx="2074" dy="1124" grid="1" gridSize="10" guides="1" tooltips="1" connect="1" arrows="1" fold="1" page="1" pageScale="1" pageWidth="827" pageHeight="1169" math="0" shadow="0">
      <root>
        <mxCell id="0" />
        <mxCell id="1" parent="0" />
        <mxCell id="2WWt8Vpvchj_IaDbux5o-30" value="Probis Enrichment" style="rounded=1;whiteSpace=wrap;html=1;verticalAlign=top;" parent="1" vertex="1">
          <mxGeometry x="70" y="580" width="140" height="370" as="geometry" />
        </mxCell>
        <mxCell id="2WWt8Vpvchj_IaDbux5o-2" value="Map FRN" style="rounded=1;whiteSpace=wrap;html=1;" parent="1" vertex="1">
          <mxGeometry x="80" y="610" width="120" height="30" as="geometry" />
        </mxCell>
        <mxCell id="2WWt8Vpvchj_IaDbux5o-19" value="" style="edgeStyle=orthogonalEdgeStyle;rounded=0;orthogonalLoop=1;jettySize=auto;html=1;" parent="1" target="2WWt8Vpvchj_IaDbux5o-18" edge="1">
          <mxGeometry relative="1" as="geometry">
            <mxPoint x="140" y="640" as="sourcePoint" />
          </mxGeometry>
        </mxCell>
        <mxCell id="2WWt8Vpvchj_IaDbux5o-21" value="" style="edgeStyle=orthogonalEdgeStyle;rounded=0;orthogonalLoop=1;jettySize=auto;html=1;" parent="1" source="2WWt8Vpvchj_IaDbux5o-18" target="2WWt8Vpvchj_IaDbux5o-20" edge="1">
          <mxGeometry relative="1" as="geometry" />
        </mxCell>
        <mxCell id="2WWt8Vpvchj_IaDbux5o-18" value="Map fund code" style="rounded=1;whiteSpace=wrap;html=1;" parent="1" vertex="1">
          <mxGeometry x="80" y="660" width="120" height="30" as="geometry" />
        </mxCell>
        <mxCell id="2WWt8Vpvchj_IaDbux5o-23" value="" style="edgeStyle=orthogonalEdgeStyle;rounded=0;orthogonalLoop=1;jettySize=auto;html=1;" parent="1" source="2WWt8Vpvchj_IaDbux5o-20" target="2WWt8Vpvchj_IaDbux5o-22" edge="1">
          <mxGeometry relative="1" as="geometry" />
        </mxCell>
        <mxCell id="2WWt8Vpvchj_IaDbux5o-20" value="Map scheme code" style="rounded=1;whiteSpace=wrap;html=1;" parent="1" vertex="1">
          <mxGeometry x="80" y="710" width="120" height="30" as="geometry" />
        </mxCell>
        <mxCell id="2WWt8Vpvchj_IaDbux5o-25" value="" style="edgeStyle=orthogonalEdgeStyle;rounded=0;orthogonalLoop=1;jettySize=auto;html=1;" parent="1" source="2WWt8Vpvchj_IaDbux5o-22" target="2WWt8Vpvchj_IaDbux5o-24" edge="1">
          <mxGeometry relative="1" as="geometry" />
        </mxCell>
        <mxCell id="2WWt8Vpvchj_IaDbux5o-22" value="Map delivery body" style="rounded=1;whiteSpace=wrap;html=1;" parent="1" vertex="1">
          <mxGeometry x="80" y="760" width="120" height="30" as="geometry" />
        </mxCell>
        <mxCell id="2WWt8Vpvchj_IaDbux5o-27" value="" style="edgeStyle=orthogonalEdgeStyle;rounded=0;orthogonalLoop=1;jettySize=auto;html=1;" parent="1" source="2WWt8Vpvchj_IaDbux5o-24" target="2WWt8Vpvchj_IaDbux5o-26" edge="1">
          <mxGeometry relative="1" as="geometry" />
        </mxCell>
        <mxCell id="2WWt8Vpvchj_IaDbux5o-24" value="Map value" style="rounded=1;whiteSpace=wrap;html=1;" parent="1" vertex="1">
          <mxGeometry x="80" y="810" width="120" height="30" as="geometry" />
        </mxCell>
        <mxCell id="2WWt8Vpvchj_IaDbux5o-29" value="" style="edgeStyle=orthogonalEdgeStyle;rounded=0;orthogonalLoop=1;jettySize=auto;html=1;" parent="1" source="2WWt8Vpvchj_IaDbux5o-26" target="2WWt8Vpvchj_IaDbux5o-28" edge="1">
          <mxGeometry relative="1" as="geometry" />
        </mxCell>
        <mxCell id="2WWt8Vpvchj_IaDbux5o-26" value="Apply dual accounting" style="rounded=1;whiteSpace=wrap;html=1;" parent="1" vertex="1">
          <mxGeometry x="80" y="860" width="120" height="30" as="geometry" />
        </mxCell>
        <mxCell id="2WWt8Vpvchj_IaDbux5o-28" value="Validate co-financing rate" style="rounded=1;whiteSpace=wrap;html=1;" parent="1" vertex="1">
          <mxGeometry x="80" y="910" width="120" height="30" as="geometry" />
        </mxCell>
        <mxCell id="2WWt8Vpvchj_IaDbux5o-31" value="Payment Service&lt;br&gt;(Azure)" style="rounded=1;whiteSpace=wrap;html=1;verticalAlign=top;fillColor=#f5f5f5;fontColor=#333333;strokeColor=#666666;" parent="1" vertex="1">
          <mxGeometry x="610.75" y="1170" width="399.25" height="190" as="geometry" />
        </mxCell>
        <mxCell id="2WWt8Vpvchj_IaDbux5o-42" style="edgeStyle=orthogonalEdgeStyle;rounded=0;orthogonalLoop=1;jettySize=auto;html=1;" parent="1" source="2WWt8Vpvchj_IaDbux5o-43" target="2WWt8Vpvchj_IaDbux5o-45" edge="1">
          <mxGeometry relative="1" as="geometry" />
        </mxCell>
        <mxCell id="2WWt8Vpvchj_IaDbux5o-43" value="Batch Processor" style="rounded=1;whiteSpace=wrap;html=1;verticalAlign=top;fontSize=12;" parent="1" vertex="1">
          <mxGeometry x="640" y="1210" width="140" height="70" as="geometry" />
        </mxCell>
        <mxCell id="2WWt8Vpvchj_IaDbux5o-44" value="" style="aspect=fixed;html=1;points=[];align=center;image;fontSize=12;image=img/lib/azure2/compute/Kubernetes_Services.svg;" parent="1" vertex="1">
          <mxGeometry x="695" y="1238.87" width="30" height="26.47" as="geometry" />
        </mxCell>
        <mxCell id="2WWt8Vpvchj_IaDbux5o-45" value="Enrichment" style="rounded=1;whiteSpace=wrap;html=1;verticalAlign=top;fontSize=12;" parent="1" vertex="1">
          <mxGeometry x="844.3699999999999" y="1210" width="140" height="70" as="geometry" />
        </mxCell>
        <mxCell id="2WWt8Vpvchj_IaDbux5o-46" value="" style="aspect=fixed;html=1;points=[];align=center;image;fontSize=12;image=img/lib/azure2/compute/Kubernetes_Services.svg;" parent="1" vertex="1">
          <mxGeometry x="899.3699999999999" y="1238.87" width="30" height="26.47" as="geometry" />
        </mxCell>
        <mxCell id="2WWt8Vpvchj_IaDbux5o-54" value="Validate batch contents and convert into individual payment requests" style="text;html=1;strokeColor=none;fillColor=none;align=left;verticalAlign=top;whiteSpace=wrap;rounded=0;dashed=1;" parent="1" vertex="1">
          <mxGeometry x="640" y="1285" width="150" height="55" as="geometry" />
        </mxCell>
        <mxCell id="2WWt8Vpvchj_IaDbux5o-57" style="edgeStyle=orthogonalEdgeStyle;rounded=0;orthogonalLoop=1;jettySize=auto;html=1;entryX=0;entryY=0.5;entryDx=0;entryDy=0;" parent="1" source="2WWt8Vpvchj_IaDbux5o-58" target="2WWt8Vpvchj_IaDbux5o-71" edge="1">
          <mxGeometry relative="1" as="geometry" />
        </mxCell>
        <mxCell id="2WWt8Vpvchj_IaDbux5o-58" value="Probis" style="rounded=1;whiteSpace=wrap;html=1;verticalAlign=top;fontSize=12;" parent="1" vertex="1">
          <mxGeometry x="220" y="1210" width="140" height="70" as="geometry" />
        </mxCell>
        <mxCell id="2WWt8Vpvchj_IaDbux5o-76" style="edgeStyle=orthogonalEdgeStyle;rounded=0;orthogonalLoop=1;jettySize=auto;html=1;entryX=0;entryY=0.5;entryDx=0;entryDy=0;" parent="1" source="2WWt8Vpvchj_IaDbux5o-71" target="2WWt8Vpvchj_IaDbux5o-43" edge="1">
          <mxGeometry relative="1" as="geometry" />
        </mxCell>
        <mxCell id="2WWt8Vpvchj_IaDbux5o-71" value="Managed Gateway" style="rounded=1;whiteSpace=wrap;html=1;verticalAlign=top;fontSize=12;" parent="1" vertex="1">
          <mxGeometry x="435.25" y="1210" width="140" height="70" as="geometry" />
        </mxCell>
        <mxCell id="2WWt8Vpvchj_IaDbux5o-72" value="" style="sketch=0;pointerEvents=1;shadow=0;dashed=0;html=1;strokeColor=none;fillColor=#505050;labelPosition=center;verticalLabelPosition=bottom;verticalAlign=top;outlineConnect=0;align=center;shape=mxgraph.office.services.network_file_share_service;fontSize=12;aspect=fixed;" parent="1" vertex="1">
          <mxGeometry x="490.25" y="1236.4300000000003" width="30" height="28.91" as="geometry" />
        </mxCell>
        <mxCell id="2WWt8Vpvchj_IaDbux5o-77" value="Enrichment and validation of individual payment requests" style="text;html=1;strokeColor=none;fillColor=none;align=left;verticalAlign=top;whiteSpace=wrap;rounded=0;dashed=1;" parent="1" vertex="1">
          <mxGeometry x="844.37" y="1285" width="150" height="55" as="geometry" />
        </mxCell>
        <mxCell id="GXm9XPs9Nsjdf4BvqMaq-1" value="" style="shape=image;verticalLabelPosition=bottom;labelBackgroundColor=default;verticalAlign=top;aspect=fixed;imageAspect=0;image=data:image/png,iVBORw0KGgoAAAANSUhEUgAAAfIAAAHwCAYAAABdWe3bAAAAAXNSR0IArs4c6QAAAARnQU1BAACxjwv8YQUAAAAJcEhZcwAADsMAAA7DAcdvqGQAAMgASURBVHhe7f1rtF1HlSaIOjH5q2+DTf283diQ9a9HY3Ddf2VLsgQ17k0wNnRn8SxszCtv9238IHPcUZWJbch7kwSyExLIrh+VWLbJO8YdmZYl+S2BJVuSsam0ngY/8EOSARvLTkvyE1s+Xj2/75szVuytfc7eR+fss/c6mlP6TsSKvVbEjBkz5oyIFWutU37vxtVNIpFIJBKJbiEoHXkikUgkEh1EUDryRCKRSCQ6iKB05IlEIpFIdBBB6cgTiUQikegggtKRJxKJRCLRQQSlI08kEolEooMISkeeSCQSiUQHEZSOPJFIJBKJDiIoHXkikUgkEh1EUDryRCKRSCQ6iKB05IlEIpFIdBBB6cgTiUQikegggtKRJxKJRCLRQQSlI08kEolEooMISkeeSCQSiUQHEZSOPJFIJBKJDiIoHXkikUgkEh1EUDryRCKRSCQ6iKB05IlEIpFIdBBB6cgTiUQikegggtKRJxKJRCLRQQSlI08kEolEooMISkeeSCQSiUQHEZSOPJFIJBKJDiIoHXkikUgkEh1EUDryRCKRSCQ6iKB05IlEIpFIdBBB6cgTiUQikegggtKRJxKJRCLRQQSlI08kEolEooMISkeeSCQSiUQHEZSOPJFIJBKJDiIoHXkikUgkEh1EUDryRCKRSCQ6iKB05IlEIpFIdBBB6cgTiUQikegggtKRJxKJRCLRQQSlI08kEolEooMISkeeSCQSiUQHEZSOPJFIJBKJDiIoHXkikUgkEh1EUDryRCKRSCQ6iKB05IlEIpFIdBBB6cgTiUQikegggtKRJxKJRCLRQQSlI08kEolEooMISkeeSCQSiUQHEZSOPJFIJBKJDiIoHXkikUgkEh1EUDryRCKRSCQ6iKB05IlEIpFIdBBB6cgTiUQikegggtKRJxKJRCLRQQSlI08kEolEooMISkeeSCQSiUQHEZSOPJFIJBKJDiIoHXkikUgkEh1EUDryRCKRSCQ6iKB05IlEIpFIdBBB6cgTiUQikegggtKRJxKJRCLRQQSlI08kEolEooMISkeeSCQSiUQHEZSOPJFIJBKJDiIoHXkikUgkEh1EUDryRCKRSCQ6iKB05IlEIpFIdBBB6cgTiUQikegggtKRJxKJRCLRQQSlI08kEolEooMISkeeSCQSiUQHEZSOPJFIJBKJDiIoHXkikUgkEh1EUDryRCKRSCQ6iKB05IlEIpFIdBBB6cgTiUQikegggtKRJxKJRCLRQQSlI08kEolEooMISkeeSCQSiUQHEZSOPJFIJBKJDiIoHXkikUgkEh1EUDryRCKRSCQ6iKB05IlEIpFIdBBB6cgTiUQikegggtKRJxKJRCLRQQSlI08kEolEooMISkeeSCQSiUQHEZSOPJFIJBKJDiIoHXkikUgkEh1EUDryRCKRSCQ6iKB05IlEIpFIdBBB6cgTiUQikegggtKRJxKJRCLRQQSlI08kEolEooMISkeeSCQSiUQHEZSOPJFIJBKJDiIoHXkikUgkEh1EUDryRCKRSCQ6iKB05IlEIpFIdBBB6cgTiUQikegggtKRJxKJRCLRQQSlI08kEolEooMISkeeSCQSiUQHEZSOPJFIJBKJDiIoHXkikUgkEh1EUDryRCKRSCQ6iKB05IlEIpFIdBBB6cgTiUQikegggtKRJxKJRCLRQQSlI08kEolEooMISkeeSCQSiUQHEZSOPJFIJBKJDiIoHXkikUgkEh1EUDryRCKRSCQ6iKB05IlEIpFIdBBB6cgTiUQikegggtKRJxKJRCLRQQSlI08kEolEooMISkeeSCQSiUQHEZSOPJFIJBKJDiIoHXkikUgkEh1EUDryRCKRSCQ6iKB05IlEIpFIdBBB6cgTiUQikegggtKRJxKJRCLRQQSlI08kEolEooMISkeeSCQSiUQHEZSOPJFIJBKJDiIoHXkikUgkEh1EUDryRCKRSCQ6iKB05IlEIpFIdBBB6cgTiUQikegggtKRJxKJRCLRQQSlI08kEolEooMISkeeSCQSiUQHEZSOPJFIJBKJDiIoHXkikUgkEh1EUDryRCKRSCQ6iKB05IlEIpFIdBBB6cgTiUQikegggtKRJxKJRCLRQQSlI08kEolEooMISkeeSCQSiUQHEZSOPJFIJBKJDiIoHXkikUgkEh1EUDryRCKRSCQ6iKB05IlEIpFIdBBB6cgTiUQikegggtKRJxKJRCLRQQSlI08kEolEooMISkeeSCQSiUQHEZSOPJFIJBKJDiIoHXkikUgkEh1EUDryRCKRSCQ6iKB05IlEIpFIdBBB6cgTiUQikegggtKRJxKJRCLRQQSlI08kEolEooMISkeeSCQSiUQHEZSOPJFIJBKJDiIoHXkikUgkEh1EUDryRCKRSCQ6iKB05IlEIpFIdBBB6cgTiUQikegggtKRJxKJRCLRQQSlI08kEolEooMISkeeSCQSiUQHEZSOPJFIJBKJDiIoHXkikUgkEh1EUDryRCKRSCQ6iKB05IlEIpFIdBBB6cgTiUQikegggtKRJxKJRCLRQQSlI08kEolEooMISkeeSCQSiUQHEZSOPJFIJBKJDiIoHXkikUgkEh1EUDryRCKRSCQ6iKB05IlEIpFIdBBB6cgTiUQikegggtKRJxKJRCLRQQSlI08kEolEooMISkeeSCQSiUQHEZSOPJFIJBKJDiIoHXkikUgkEh1EUDryRCKRSCQ6iKB05IlEIpFIdBBB6cgTiUQikegggtKRJxKJRCLRQQSlI08kEolEooMISkeeSCQSiUQHEZSOPJFIJBKJDiIoHXkikUgkEh1EUDryRCKRSCQ6iKB05IlEIpFIdBBB6cgTiUQikegggtKRJxKJRCLRQQSlI08kEolEooMISkeeSCQSiUQHEZSOPJFIJBKJDiIoHXkikUgkEh1EUDryRCKRSCQ6iKB05IlEIpFIdBBB6cgTiUQikegggtKRJxKJRCLRQQSlI08kEolEooMISkeeSCQSiUQHEZSOPJFIJBKJDiIoHXkikUgkEh1EUDryRCKRSCQ6iKB05IlEIpFIdBBB6cgTiUQikegggtKRJxKJRCLRQQSlI08kEolEooMISkeeSCQSiUQHEZSOPJFIJBKJDiIoHXkikUgkEh1EUDryRCKRSCQ6iKB05IlEIpFIdBBB6cgTiUQikegggtKRJxKJRCLRQQSlI08kEolEooMISkeeSCQSiUQHEZSOPJFIJBKJDiIoHXkikUgkEh1EUDryRCKRSCQ6iKB05IlEIpFIdBBB6cgTiUQikegggtKRJxKJRCLRQQSlI08kEolEooMISkeeSCQSiUQHEZSOPJFIJBKJDiIoHXkikUgkEh1EUDryRCKRSCQ6iKB05IlEIpFIdBBB6cgTiUQikegggtKRJxKJRCLRQQSlI08kEolEooMISkeeSCQSiUQHEZSOPJFIJBKJDiIoHXkikUgkEh1EUDryRCKRSCQ6iKB05IlEIpFIdBBB6cgTiUQikegggtKRJxKJRCLRQQSlI08kEolEooMISkeeSCQSiUQHEZSOPJFIJBKJDiIoHXkikUgkEh1EUDryRCKRSCQ6iKB05IlEIpFIdBBB6cgTiUQikegggtKRJxKJRCLRQQSlI08kEolEooMISkeeSCQSiUQHEZSOPJFIJBKJDiIoHXkikUgkEh1EUDryRCKRSCQ6iKB05IlEIpFIdBBB6cgTiUQikegggtKRJxKJRCLRQQSlI08kEolEooMISkeeSCQSiUQHEZSOPJFIJBKJDiIoHXkikUgkEh1EUDryRCKRSCQ6iKB05IlEIpFIdBBB6cgTiUQikegggtKRJxKJRCLRQQSlI08kEolEooMISkeeSCQSiUQHEZSOPJFIJBKJDiIoHXkikUgkEh1EUDryRCKRSCQ6iKB05IlEIpFIdBBB6cgTiUQikegggtKRJxKJRCLRQQSlI08kEolEooMISkeeSCQSiUQHEZSOPJFIJBKJDiIoHXkikUgkEh1EUDryRCKRSCQ6iKB05IlEIpFIdBBB6cgTiUQikegggtKRJxKJRCLRQQSlI08kEolEooMISkeeSCQSiUQHEZSOPJFIJBKJDiIoHXkikUgkEh1EUDryRCKRSCQ6iKB05IlEIpFIdBBB6cgTiUQikegggtKRJxKJRCLRQQSlI08kEolEooMIWrgjX7+K4VsMp6w33HieQsNx5y5DnLLB612h/MbjVXaOAXJyWbXn6njSOGXjyuaUdecpvmFN4fWUDUpbCN6y3vKzfCgHry/TrLxTLew/f7kB8uw5dtlSvoblLh/W5UbTL6sj46VPqG6MW11Ln/C+QpmMoH+nrD9X54b8gPgN5Xr6nLA+jPNpw8x+RfuIX5xTlwceVY9IW86INij2AfVev8JCk8GGFT3nTgLD+k9p41nAc+xcXINry2+WZ6RNM4IW7MhP2fB+g1WcncaF6IJA+qBrlhPqxu4xHDAIA84rTr1SnklCvEaH8A4KYwUeb1w4f9SDShY6NjltlH6orGUMytR1IpwXBrvmPN7CPrIw+cR10wryCccXjgBxqx8HMiabmADE+aeaPSnXuoOdC7gefSnKkJzdCUPOlawGAdf3nqu2Qt44DqdOfgNu6/p5WY6IeqrdIGfJ+C3r23aaJBZsX3AOzsU1dm3Jx+sax9OKoIU7clbYGpYNvJIh001Ii+EIph1hAOiUo8NTFm4MqEyhUG2c8oJB68tvqaFOqXZ6ywYYKOMPBhHKbfH+8+eLyIPGEnHk73jLjW18uQIj/phZy3BIDnIGOmch8gk5Tyuk915v1/nQN/1u9fD+wvNoT3DuaLYD/Yv9zo9lh2yWHmkI5wAHWsbTqevNbtlxyJy/I3/nv+Tv7RSI9OUKtINWKqSvkhlkbL9PQf2jDWbrP+RxDtR9DMe8rvRXS6vKmkYELdiRn2rOG52PI1vvkBQEl18GX7OcEB1dMuhVHiqXGwl2BDh1kxFmEFSaKViakvKqDmdt+WJJo4IvAn/RGVj/myyE4eVv6HjQk1ZeyxF0Su6cQibqH5C7sCD5eJ7TCup8zJiNXwwQmQ6d29jKhHVF6ANIyIN9yX+fFTgXztjKwSzxlHUo08uKvjkHaLOszFgZUJ/VahnzQH+1sJZ3ub5q0+UK2XStoCD+rjs+1bz9lg9TNjgedM1SAnwwnKX/lLaaFWhD1z3oKvKwvOq8pxlBC3bkew4/bg37IVaaHciX2vHbKEtjXQeVgfX2hnfQeLuixNI10ymn1pj157fUCB7O+PHHm6Ovv+xGd3E7aBjD0AuN8D2NMlq+oLHzeqLunJ3jGI5qgxuMBcgH5081MKC3+hWD6zzHDFh1VEingX6E2w4mp1EcBfLTdSsYQnb8LfKtzp0NGFBQnu6Yed06H3i7nOkowA/4pPHHtREub7BNfDB2zcHbmsv2/eeRZbsUmKv/9J97HHAdBm5+zDyY13DdmwYELdiRv9nMmDPf37zjpg/zmB1rlJH0MgHrap0ecSo8lMI7OmQhQwbgWMusNApT0hE467ZOeu2BH5s6zDQX7/42eYvR7KBr5gPObKr6spMhf2ywW4QZfxfAgR4dAgyEdIOzR4bLWz49syKre6mf61YZ5MJxWnoxqJTVKPV3eboz5zW8FuWinLkR+TCONKwIWF/V7RAD0pA3+HeHz2ssfZSBRtdR2snCd27+RNO8OdMcfPkZyaOS36QwrP8wPhdwDs61eI/uWZ5hx6cZQQt25EFrD9whxa6ENOj85YZTNqpDU4FgPMwIlN/YCdyg+M5wGbaQUXvu5LCmOe3W85sjx162QVnT7DnyKPmC8Yp7uwtB7/12dDoca6nu9278QM+5yxJoZzc0koGMDULKeZnLJwx+OGUcy+nCCVp9uaytPsTz0J8wOHZZDcMpG85hnshL+cJ4x2/IM3iYDVXZaKcYbNjMrJ6Q0GFYW7X5oj01gF/OoIysvpDF1Q9dS1v/5ptvNhfed+XIbTRODOs/x7d3L9jH0Jawz3Yt8+Cx5ePtPc0IWiRHPsO/1x7c5AKCkms0O+ia5YRL7v/r5spHrmn+4sFrm689uLa56uFrm6ss/LopPeJQ/nff/ikahrdSUUw+brykSJMF+AKvbEN48pk3m1Xb/9TS7fdFaD+uQNAoQi9ihgOj/oHmop1/SfksZ1z1sHTjqgeva77+4PXNVQ/9l2bljsspC8hhofIZJPOpAuuzmn3g6w9d01z58D+wf0AulAf6yi+us+Prm4t3fcOMKYyv6R2ugzwG5Vnh4p3fau56dmez7ZmfN1uf3ddsO7S72fLcnmb7M/uaLc/ust/2DIGdb9cgjuuVttP4+lFz5UM/tL59Lcs4Z8elzTtu/pDXB7zFrH0wX8sFYaPefssHmyOvvwDzQFsBufWfOwkM6z+9bX08cA4dPq5xnYuBXBfaN2hRHPkb+MMGbpofHriVwoAg8DtH2zg2hZDzMlRLIV0HlOE4clkErTLDjXM1wFG92UGWQAbREaXcFQ/xLKj9vv/l3/IWCQisX38AAzKcg3PtGhuAvGUdztW1bE/vPHVZg4Byo/2BmP3gt+3P7mWZYyVUyIBZhOqoAUvdRPgtqE5fNPJMQ8ZwXqVdXMYh6zptoG71Uch5WhFtvXL7Zc7x7IT6ot5xTYRzAYOZmEiMQmiDogfwSqXB+/Pwc4IsCj15/tgLzc1P3dP8bw98rzl7y5fII/qBdBx2zfiOGXul6wyRxkF89InJOwrYYoRyhOC51UP+Tv7XNJ/Z+VcuCIkMXeYPNv171kl92mfByIP2XXlGPuME+Y6yEXq6dGNuqgfDdR51PtOMoEWckaODHGMrY0OEHmXSOVJub3DsKr0J9wfPPS6vLmL6HTkMjZV7ky+Vgwe/T4vfLtn5zTLKZhvSqc1w81uMcMtjaT27jA0+WJsTuA7LX64L3MFvaYhvHcFRjYOK41bFSUwKLCIdl50lYHbe9g3ohMupLy0d+XD9mo8j72ljx3Fps1L0Db+GNGOD4GfIwzvvsP7i/eqtWOb3vqP+ZnXBb4izfqobHH1/fZYa4AV2mXHcGsSgHfYCDt0G4cHngZd/Tfm8AVl7/dc+aQN+2HQuZ2twr/qqv4/SfosB8oiyIvT0dOTzgMgcuFPo+PUHbqdQtEyBxm4dO2aDCKnsnk9XMe2OPBSTTtzvJyGdHc/iuCdOfs2pISDr1lextEh+2Ukx2q7uPaKT0jkP518d2mcsfk0MALA8VwodExCAMMzkf1hh+z9jJglGKWZocV78vqhwevNNrl3xlgtlR5mifUxWEVJmiqcjH65fwx25/+btgACtXQZzRjy2sGqqHtK5vWWgLWNmr+tmzLHd1pyx6RPkm7rOJ3gw8xav2iznA2vW8/j6TAJy2jb4uMFlHnJHPYzH1du/4sJRfYOef+3F5vSbP1wmaBwQ8BoD8oXdqMoZF1geeI7Q09ORzwNo4NYMIv66x5rm4p1/TWcBZdBSkhpbx+9fsqWXcaIbjtzK46zAFRXxjaua1XebcTVey0yDf0Uv/O6l0k5w5u2z8Gg/8R0j+bnAeiLEgIB8KETaKI5qwYRKoY46Usjj1ggX513N0EG9RydGzDZyQmDA/eBTIE+XJeURIWWmeDry4f1jmCMvbeiybwmt0ndddc5xpwfhEvuhp8/wj1oZA8SrH7qeG0gL/2hPtDWWsS0ey+rTMJHhQAOOPHSPm76wYxuDELXBXYf2sWaFWFHdqrpi3/dLPUOPCWwa89t54wbKJw8Reno68nmAZA0rXS4Rg2bpl9z/rdYJREPbdVKebghrLky7I5dhNKdrs4Aie5stII7NiSDME4+1jYg/DC/a9S3nVwaH/HunZ7rnNxdgwGS4cK2vCuB6MxJLsbSuKuGvGVqfEYOYjipXM7M2DhkEFkq9+aCIKx/KpfVBNA5HroZWEAiCIyqDrOPI8uz5Se2Ia4T+vIzc/r1pp+5/5cnmvVt1D52TGQxkre/AFnICg3Q49r76LDnAhw/IeevMjmOggfi7N33S62myskjbg9Cf3rR6/lrXIh9rO03UhrfbYkJlW5kReno68nkAxhGNi8ZWg4s42mVfmGk++8/fLMKhksS9l44Iay5MvSPn0p6hzKaVhjc0xZ4GUuE5DNiMP4oWim35gV8DR+seH1Rmjfb69nwuMZpD335oN0scO1l9UCVWq9TTyY8xk2LdjWY990Qo8qjywlMCxZgTEa9llo48wrkw1JE7lRm0haUp4jJPKOmIxEFJrKhKo2OzY+Xf6g/i2OWNHe/QdTlHq5PbvnoP0aQh2wCeWj6pjxvO4X1w1QaVVD1p2zEoVkWbC3/257o+7Iy3IQfuA8pbbLAs6EqEnp6OfB5oSSM0Nq6BM7yKsOtROzYhMCzZqtEH5dklTL8jx2zcR8roZO5E/+bxG8mnN1dhGe1Ws79q+1csj3aJjDN7f9ZyFP5V5yrkct15zVstvPO5+72UcRJcNAxPW0eFmI3hPmdLOm6dQv3biVLJwyLIG7xg17oem2nlIgPSK7N05MP1a6gjp9wle51Xzab5p55dV7+3iYPJf+d5RtQxrvwcf9nFO78pu+d98Pc2aiAc+1UmCcibtnij8UMnrJk4+Dv95gsrOVj9LFTdQmZKw+N6nCywTv74ltuaQWUuNliuIfiO9HTk80Ah9AE0MJcveUBqlzOPNR+99+oioLrDdhnT78iPl/fpt3ywef61o8YZ2kmdslA5UCe99uDt7fVwPO7UdW9tcJk15LBkHHBMw8HNPuc23310A+U3TmD5Hs8HN75347i6MmGmef7Y0WbHoV80W57b19z9zG4CzyMPynM+uPu5vRZafpYXnmvedmgfnxSoV6VCFxhSRorj+mFUy3oaETo3uRk5dpb/ttn+7APUBTzyiHIQv+tf9lh7hI4ofpe1F3TggSNPmHPG7UHlHTP6mor64Bxz4lIl/MVwuOZpprmgzFrfb21tbW99gqsyU4CQeZlkbTiXm9eueuiH5L6nLiEGDxnYnzM3f9L7teVhdkEz++HttxhAOSwrQk9PRz4PDCVrZO0ObrjUxA9zYNc6hEVnAKWGcYcCeDoVy9CBR9QGGltX8qCJOnKOsi10x4G0K/b+Z+dsOKEq//qOf2/Xx+aXivcl4H8xAH7DIM9GtRNh/XjdErRPlNdXLuLpyIfLf7gjl7FWvnYN8nT5jqK/2IW+evvlfNJgz9HHPEdQr6MGlW7PCCY1FvFEPH+O21nlfrQPsCeNkEtsXJXM5YQPvnxIzM9FXr9rfqWnlCIvbubzPMcN8Eq+I/T0dOTzwFBypQ7ChzliE0g0fNxD4rHfV5HjGVzmNGHaHXnIWKNtyHdVs/+Vp4wra5M+Pmcj7MI9ZeM5ml17R63batoBnnsN7/GUjnw8CBl21ZFzsmHnwT4B77RBLZ46OHLsRes+7sArG1d3Kcb5BzP0Y1wBQJ7Rj0ap31KBdYQDxmbUjSubi3Z/Y+AqRD/F8jrkgY9nUabMQ3UcVNZiA7xTlhF6ejryeWAYoaHbp8yN0OivvUJn3s7MsdzUNgbeIoa8l0oRFoJpd+RRXgyUPnrfn5On4V1UhPOOvPaStZE7b+d7WmYUowA8pyOfDEKGXXXkgDZ3WpxfREM/WMH7x999bJ07O5QvaNNkTViNdP7sVD2Si0+0Wn4jlj9WVLLgPXwMzi2+58gj4nkIHfP6QgqX7/2e8vD8lurWgfpLtGsr03Tk88BQ4j0jKXO5G2sBZuZaZocC+f1CU6K33FDN9jogzKl35H4fW2Wv5H3AuJ/Xx+achN23eoGJz8h95N5f3jQCPEMH56J05ONByLCrjlwrWefqGszOOUO3dEw2rD+gb2PZHH2JLq10qngiBEvsFhhg/w68gi+HRf0Gl7mUoK6hL8MB3yjbu3LHV9pqDKH2vGPNE6881fzeDZo0LKX9Zh1QVoSeno58HhiFqMe+TFOcuRHumb/91gvKe7y5WYIdxQWKe+YDypwmTLsjRxmUq3VSrIIUYqMoOjfJSO47/Hi5BRJ10A72AWVOGSDrYcY+Hfl4EDLs7NI6rqNN0stcYlYebQS8784vNi+//kpx2IDsnPhiN7M//MlO4mbHm3zmOqDMpQTrsQF1kSwwSF//1E/BsdHcciWxUojYuRZecO9X3Y5b/iPIdzGgtoh2bctMRz4PjEKxcx1KXJaZjND++w4/ynsrfKNQCNDAe1IDyps2TL0jD1hZ+OZ46Xf2p4/NgRT3wHCuvtrVKjofVRlU1pQBsh5mlNKRjwchw+7eI5fT5jXm0OONZ/gN9om70C1cuf1SK8kX1sEO+kzVweDYcQhgUMy8Ryh/KaD74ng0eFXzB7d9inaajI5I8egdLsGTHku9vwlyLG1UyTQd+TwwKsGZSzfinrmeqYUC7Dr6OJ05Z+ZQAuyQ5nLP4DKnCdPuyGnATI7//Y8/KWaMN8rdwtrQzEo4B+dasPbJ231J0epBAze4zGkD+IS+zUXpyMeDkGGX75FjxqpPEGNmjmPs7YGdQl7htNY033n8n7xE9JfgyUP2NYv7LfQzNn3Krhut/HGCtw58GRx2Yu2B2wqrDIcRHbivs+KPAXUbVNa4oP4S7drKNB35PDCc+jqZN3w0OuOWxpn5rRdQkBKmd5gBZU4Tpt2Rhyx7DF7IfUTiG+BIx5ozN39aS2dLxf8iALwep4d9lI58PAgZdnZGbg5czk7Lzgh5LdL8NhOXpm3ygfczHH79BZ/RVjyxv1Vkk5rLHvj+cWVNAmFjUafTb/6Q8f+KMWi8k+FRbUSch3CGH8ySvIfLdzHANkBZEXp6OvJ5YBSSEquxexTaSMvtiDTcKfn2Wz7MfDHjY2gCjXvoEDI7EwU9HUvvk3bkWurD9421s1ZGR7cmoqy308C8VOTcf4sDbYPHR256ahuPaIgsrbQNSedT8b0eYdCmHeAz+J+N0pGPByHDLs/I5wI3flrI++jm9K978nZjB72mflbH+GNHancIbXhqx3F5TQoh58v2/Z3sg/EnPiFX2AEekDRjb+XNn/CHSe3M/G23fkj5e951m0r2Kxq8dIbnLBDKM9q1bdN05PPAMIIzOPzGi6EZRu0DGpjplWSLQEG2HtrFTkGHhI8NcCMGhNwqQTxKFc5+kpi0Iy+dgvLRLnIue5tRid8uuv+b5IndjEbGWaz4/M6j/8gXX0T6mzOx69aPGcxwxtF2zl5ephXg0y3NrJSOfDwIGS5XR458OGj2V5Ke/ZMvqlD0GfeA0Y1AjNsfvMthGl7RWm5nWh3wBrweZk2ucRsuZPyvbjm/2TLgGwlRr7gc3xPQl9Rkh2CTaNNd9ngSgHa8j58TgfKMdm3bNB35PDAKnbftCo+B+kaqhqI7UARTfi7N4P44BModo21D1YLmPaoBPC0lJu7IMZhBvjQk3mksXn43577/1adNzO3KB0JAAyprA4tgyRzn3//Co4X9CEkcAKhT42UR3MewCPwvBSAT8j4HpSMfD0KGy9mRR17sg+YUD7/xcnHipbM5aTarfjQov6UGHC14/8yuvyRPsAliWTwCUZdrD97Gcz/0sz9TutcFv/MMHOrU5sBLzyh/l0/tyGNVdTHkDyCvyK/WmXTk88AwwqwbbzL6zE7NCgEpgOIiOHNPc8VY+2vcZ8HMG5tK5KD4RiR2FlMGK3uxRnQLwaQduRTPQ8jG4iEXGJXV278SdmMgQe4bfntPWea6aJe3U0U4J5LQnnuOPmFlWTkYRAQfUwzIRFZmdkpHPh6EDJerI488YsMYNsWhHj02ru08OsRTPBY5Y9PHjs9vqWE847acdK21wSCxLnuMg7O2fL7M4A++8nRx8DUhxRf9fMDv9+BptzUpW1T5G9RfIt82z3Tk88AwQpui0WD08VKRkhg6YGHrJuywfGSlaX504DYtW9mskjNALNPEsjuEjTfC9fGz1BhobNvqkMa92Y2rFxbSgaOMeN7bOhG+TFSLu8fo+Q8rdlxKuSIPbdh5yX5oz6NRYgZtB1+14zK2R83HtAKy7qn3AKqdCNuG142/M5fy+spFfKBu9VF/ftOGkOGynZFbH5ON8pmmpeGNb+ApZqqBQn6Afjcoz6UEeI9H5wjjLZ4wanme4XK6JlSyv/iCH6nnRLseXpz/Z9Se7siBuPWneC8fC4H6S7Rr26bpyOeBoWSN2gpoNT9nynZXe9sfOW6N7rxD8gd9yD52QP7e+nN68tFbxXJGTln4LQbGLU8ZltXNv77902JgRjMAsSUZx3DpwEu/1bXcjQtjtLL53qPrShUY4k8szbOvzzRrD9yhgUPFy7QCsoh6z0bpyMeDkOHyXVpHHj7TxPFN5zVXPmI8RQcyitl5hKKZZuW2K3rymgQwU772V5vb2XXwTQOBKZYGJJfc/9eso172sopPGJWpt1HsfFIK6mmwg7O3fEGy9rIYoi3wFEDFx0IAvij/CD09Hfk8MJSsMSkYvkRfwsH3eZGORoeixPt62fh0GFIC/I4/l/qjGhoRStgUuM9EJ4mJO3IsV1kHCecdnQad5O9/dTvLD+nWfKGL4vDL+/B+ZDlkLpUbT/jiUxid0jZ2crnc4ziv5mVaAZnIuMxO6cjHg5Dhsl1aNwTPkWePA0FHcUSfks+caVaYTAblt5TAM9+UH/lrCXFudDN68qWneC7qp/vbqu/1Bzbx97KiWjJQCrD2yU3NW/29ILhWqxay44s1EZDso13bNk1HPg+MQlpe8cfFXEj4LCBamkpdFADUdkopvo4/uwvv+sa1ngcVo12qmRQm7ciZhyP2EqAMPHIm2RnIj8sVMvcQS+jvuOV8v6aC5XPXIXzD268htXnxeqOrH75mME9TBtSpty7HUzry8SBkuLwdufJDiPvNX//FD4sT5EwXHYadpuUTrg5PiQzKbykB2QSPHLI7n8EuQjo71k2ThXhKRm1ay96vsz8M/Te+udNlzVk55dXq+0KhvKJd2zaVbsxNrFuVT8vb4ujGuBG0BI58xs4zBTDnoGs+YA5Y3xm/9qBGdEXZEeefMoc00i53pH/2/r/kdVCAeM93v8DLrJ3xNn1cmLQjRz6RF/P33eR4/KPlIzqbemYMkPCmNvGkGXws0UO2H7n3z3i5ssB11ia4NtrG4vwqWtSB+Wh1IPIsv00Y4KWVwWBKRz4ehAyX/9J6yy8GuGHT2H/4xwlxx1KsaIGneNcEjtXP9d4JONiyH8b4qR4G5rHYnGneufljcuLo27CvfOum7PmeI4/qxNIGyqvNaYaffSUvWE53+7yYTxwxP8g+Qk9PRz4PjEJseAgHjYgldm5aQ9rq5pqDt+qkaHk6CiiFje44XdchY/ZHX+FCXsoHPNBhc5TojYDnM284ntdxYNKOHIi8KBN0MIvzmVAnsuO3LChSRzxyxqV1XI/nPtdZp8cHHSwN989xHlqEefCPSNGZ5pL7rT3wIYnCA+6jOV++ZD9pgDfp1OyUjnw8CBku2xl5xSuXji2OAXLhyTpK3Xdipo7fyUOd1xhQlsIj9PoDF93/bWMLtzZ7OzbthB9i+fz3b3Cb7dfVt/H4lEst/ior5IK8nnzxGa6ewh5APqfeiM9Wy14P4nm+QD7BW51nOvJ5YBSCY4iP6UtQJjQujWNmvoZvCwJRB0wpEDJufyJUII3h14OsbAkej6dZ3uuiQa0MDBz4TPX4G2PSjrzINOpruGjnXxYWKDPfqNZ2T3zcYJ9kV/MRssSxOWfO6rGhBZcRkUMb7j7yuMq3fGIjTD+PkwZ4A69zUTry8SBkuFwdOR3Ueg2eWYbp/wNHnlDB6iRkL7pQ9J2DLz9j57Y7uscFyDAe2+U9aR90I/2xV58ST24fRODP4JOolffo6ZSQX6y4KW+91vWF13o/44pr2/xUb6ymor6yLyp/lPYdBSWvvjzTkc8Do1AIRTNnFxYalMvspiTmeK/91e3HKwAP0EmhWIgrDctB792K3ZAQOBpAyoVR56l06N64dtzP72Jj0o4c4Gi7dLA1zZ7Dj5OHtmMpFMmq6HODdi1WSML52vU0TFwx0dKbBk/ak8oOjizqvAz4fjHqU57zRz19BtDP6yQAPsTr7JSOfDwIGS7bpXV3kLBtwJmbP27svKG+58TuEs6SrB7jbcW4PThOoJ6xnF6nX/izPxcv5KdPfsYo+jqWzU+1QUrRUc9PfVzHqPv//vg/tteFoUaeJfpGc/ezDyifWOKnfVic+ou/aNc2z3Tk88AwQlvGPZVaQG+50RoUx7hvgo6w/tzKcIUSuOOo9cwSoCsvvv5i894tf6w8LH8q3DqM+LwcC/t5HQcm7siRhwMdli+AqeTXy4uOsWTODumdEQjHizzYHjBQlhb7GKItCDSA/vPPTb/ZoesxiILcjRcO1DBw8/wnCdSrV4mOp3Tk40HIcPneIzeYrnMQa07qCryvvCb2k4o/dBoDHsNdyv6h2bDqDV7vfmYXWRF/6t1kLfq2hRft+padr6X0kJXkiHxkb7AyeubmT9r5NnTxvHR9PZSZsX9vNO/9iU2+TFaFr0WQPxD8qF3bPNORzwPDCPdf2GAQDu5dh4BwDOVC6KPa02/+MGeT7r7trzuiUBAj/aaOceS1V5r33fkl5WEOpIwe8Zay9eNftgIm7si5kVD5oaNufPpeK9HlZmH7yVL8QVpjxub7zotdwz0LJn/kRX7Q0dBxrW2svfiyiPZS76BumDwRwR9s+jg7aU/9evicHMBL4XkWSkc+HoQMl7UjB9AHzQZhb0pZuXK+wo5pXUtx2DryMCDPxUSsttEZ83g139AG/uR8K9n5PhpwfwTfVPDrVL/z2jhm5HyPh9JxKzN0Ne63M3/GQKoz9g7gGsr/Rj2KxuMFQv0l2rVt03Tk88BQsgaEcKgE1uAUlDkP3semYvSO+LCcu+voo3ahGh/UsxnDSEfazQ6FO3uLO3PmaUq2hLPBSTty7D6NfOKZUPhsUMuGGxb7c/jYUT6aRhlFexgvWn4L/iA/tQ3CXS88zE7eZlh1fpCl41vMdX7kzXmcNMDPcTz3UTry8SBkuLxn5NL1+DhRSy1f7SrWTLPhqZ+qbotQ/jBIl1ROyODag7f7fTfnzwOxroOrH7re6qXJUM8AHQ4dITbGugxhNy6872ofGKCuzELHCD1PJGMAE/kgXAyUOkbo6enI54FRCOedwl2L7tBNAco9EgiNo9lojBXN22++sNlnM3M0fIxmRa3i8TfTGIRw5piZqxGML5+NL0VjTNqRF8Uz+eEteIWMhz42TGxv8AUNuO44xx354JjhGrWVdeKL7v8rXh8yV/cEoT3UJkdeP9qchu/JB0/R0YPPCQJ8FN2ZhdKRjwchw+XqyOM+NzZ9PX/sBS9RFPPyflq1/StWNlYjB+e56LCyaG+tv4NPDipI/Ry2x2ds/iPjz/q/zb6RR+ik2iTsBY4Vxzl6UkbGuZTRW4DePcFr5Q96+DxBiBfLK0JPT0c+D4xCEozOL/EqTekGHwHiN3yXfPcLv/QcQjE025RueOflsTZm4Jp2yScaxDobHZIahrNES9dAQstNC8FSOHLKJq7tu4bpNhDCSBffFGfZLB+yckb8GPSuO/BMqGbxtfxnhZ132q3nc4MhPphC6qtfEB5FUzvqulHrN26Ap6Ivs1A68vEgZDgxR266iveC96wIunzhkGJiwckEynPoHANmjgx9abq0kdsSxDee16x/Wt/yD4oJSMxGg7Y+s9eu1WNYi+XIhiHKQX2+9ovryAcG9dGNyaOvuCHO90vgNmhfPoMQMkOIp1zC5uBv5K98RftfxqNomNXjmoXbXyDaKviI9HTk88AoJMHo/BL3ULA4lA2jVCzjYIncnPq77vgUN7WFEyegcIXUSehgLHnf4Uc44kTnRFlQFnbUG89lGSyfI1OkaTNX1ONEMW5HjvNYH5yL64N/l12sbHz5539n5da7ZUM28Wem2frsPsvTrx2xo/JlEna+PgRhWVlbqHrKHwdRXbzKkTNx7n1AOcPrtxQA/4XfWSgd+XgQMpz4jByOmq+Jbq+lnHG/l/JWHOnob7QbvFVn53l/i74W9kPLw/H4rPFgHUFzWm3uKsQOohuE77vz8+wfaO/FsD/DAL61EQ91PM8H++I1QPYUZTXOu+dyDXoG5DcIkt8aTqRK3ZFvlTcoZINbELIRi9O/ov3Uh9o805HPA6OQBKPzS9zDEBjjUDZ0Fj7+ZDCn8N6tX2oOvwFn7plBHcxh4VCoOrFFdx3+JWenyss7IJ1K21A8tt8Qr+tyIhi/IxfPjIcDD+NDw4Jz1jQHXvZnQkHxqAvIIoijE13yz9+U8cC1kEtfWYMhI/AHt+H+u6gdS6lr8lCFNKu3XdoavHkYg3ECdSVzc1A68vEgZDgpRw61/IsHsbSO56ldL0M/N7QfYor8WL6//KTnNwvDboQTAvBUB/sAO4ETExwk9ZO//eUNut4G0cgryhwnOBjxDa2f3fVtDsQpr4o3xDXsmGn2HnlCdYN9HJDfbICNwKOr1+2/gzm1BHvthXlw16Gfu74Pb99REG3Rn2c68nlgFJJgdH6Je6iR7Ro+/63lJuskmNVh5zmdyArusnzh2O+8s3inRdwVA2EbneH99dNvvpDKxeUbbxSUw3taKNs682iObG4slSOnAYC8DHCUXG3wFYdLdn5DBYUc+kKAj5whjzIIGG0gU/g1Y3DXs7tN/D5I4J+Wohxt5LHz2Y5LY6yGAfwUvZmF0pGPByHDSTpyLPnydo/PsHFdDDJpc1Cm2Qr2B8iedgPnyemiz7A85wf97t2bPq3Xk5LaAS0HuYCTlrDx4qRHLV+VqToKzHeM4KDlBr2QK+5hk70yGvdjP/zs/XgszuwLroNMBuRZA3UoA3cDHn9tZaBBgmdtFO00Yzb9i4tmH6Js9aGW53Tk88AoJMHo/BL3UKPjVmmYZo68HT1jaXdN8547P8dNbRw5uqJwNt5qiUVfLwoKZ878bNSNDqkOqkHDYjbSuB05UDvxkuZGCQZqy3O7VWSPLLzTeBp3oW48R4YLTpzh8PLpkFG+lXfhf72KebHr6z+PSHYQo/p3bvqUOrcby0kDcip8zkLpyMeDkOFkHfk1zEt5V4Bz78tPq3dWboUyA7fz33HLBSxTul/1AbDAA/QOuG/d7gPtf/G32r9T8kPZWl7vL3+xEQN32KDCtMur2AjSTHP09Ze5H6bUf0B+/aBcCJWFtD1Hn2jztjLbchTiJgN2zmNg1Z/fiSB4oGwReno68nlgFJJgdH6JeyiBaeSLhn3LOovDCbgC4poYNWNmfuTYy/TV5ZE0KoqhPOqgOEJ9FETX1h2nlL9x4Y21ZI7c5AHnWOSG5TIzCKt2VAaSsoi7c9ZpCh8zfBKA17qD1TKhby4cghiho30OvvK0smRZUQQ6qBmwNzVb/+5jNxqP5y7Z8uEwQF5hRGajdOTjQchwkpvdaKwhU+8/BK5nmpx0pFFn/Rjp3CNifQ+3+PDece5Mp+5bmdHFcFytrdfx54+9ZHbrEr1fHHaOeSLUzL6uyziguq1oNjy1o/CqvorQyMLot9977J/sfN8nADvh+jgXoh6lXjYJ42N4Tr22qG6nGQ6KBuU5X6Bs1dNDT09HPg+MQhKMzi9xD3mMWXfclzLnpCVvKLsUn50NndDSLrjvP/YoZIQI+pe1QHjcKjpOzMx5fOPiOJolceQuJ3YYDHDgxC3tVBv08M1r7B/RSSSLYAFuna+DhDOu67vOOuxI5UNWKNPax/LADuAglKEFEBgGdFnjwRKOvv5q8/ZbL2CbDs5zaQFZkbc5KB35eBAynNyMHLuwNzVrtn2F3//GwBe8rNx2BUN8ShQh0rHJC+es3van/DgT8r7xqbubI2+8oImD63rvmy1Udsw6dYoe0cTmW3zhLPod6wZbhv4ERznCithCgTLxfgk5VFBrH2rgxVHvuuMT5KnYyxHkz9sVuBWKvg69xarFrR/ipjrkC6oHNiByYP9hSwbmOU+ovxivEXp6OvJ5YBSSYHR+iXsY8RgBhhBb+OjQlR4zdn5xp+o4VJOZVlWpN0xUiI7MvLm5RUpalLWqy4lgqRw5HbGPfNFZ4MTfufmPvAR0DTdm8Kz6r9CEcfaWP2ZH41fN0PGYh+Q9qLwaOCd4Bk675SMoBLmXMmQaaprhKygXYw/CYgB1CJ5no3Tk40HIEM5yGI3DkYOknXaOReCwQm8ZwFh4PKhOY9D3ey8pX5HFnZWNv96uZWpOTMx5b1SfaycpFvr7LsaLNeX9ErGKIH4RMVgchxt/fQ/Ph33k67PJ43D5wy5rYKL9R7SvZmuwsa8Qy3DBcOSvt8fhwzGD8pwv1F+M1wg9PR35PDAKSTA6v8SrtLkggZqS0PHoGjhhvKSE+giVcGUEsRNKP3vS1j55W8lH+aozMU8qIpbYNFCIQYPKHsxXYNyOvD6PcXQwzshXNV9/8HrLvXcpXUX7895G2w7BOKJOmBVgRULGY5S6Aa0sDD4rr188w7JLuS3F+9yZzw0aiDAP8DFi2YsFlEv5zEHpyMeDkOGkHHmZO5sDQazoKSNtn9HnRf0YNiQoohaWfnZceboOwEz00r0/IG+j3rpaEKArNlgI+9WrT2uat918Pu99y0aK71I9rKI56yu3/YnnBbidHEH+aiPYFzvm9eLjjB9/XGWQ+uVl5PxgUlbam/KSfeAAaINvMhwC1dnyiNDT05HPA6OQBKPzS7xKmws83+8R87ENc7Rq6Pe7Mw/lhDpqtM20UFYjRWes0eID974MRMApApZuI8ky67W0UWaU43fkcMAIz+USluKrmtNv+X80R+MFML4awWLtT22IIKN6GY8ze+RJXgaXWSP4xOZDHls+WJZkOZT9IFmDZppV2/+UvJb248bFavUFnb+vvHEAZZHPOSgd+XgQMpzkjJwExfTVqpqKrQhEtOy5kY7HZQx9UBDpkcc1B29r/i+3fYhtqX096rtjhesK+jTLhDNkmsHsBeQTQ30QbYOYJ4H3/a88xbxg+7hSCWfOdhhQXj+8fNmYsKuqO55ykXxQrsqKhEjHOeBVdlf5yT7geDT56VzTlQg9PR35PDAKSTA6v8SrtLkQDVwaF87AZ3WamX/bSlBHjk4XikLiUo4duwLj3leMlJkvQ+SrYyrjOnwnHfHhijR+Rx7KpWsoD+toGMmySizLO0gJVW10UH7WFaPkkJ/ft9bx4DJrqFzngcvyxsP69/N5fRg7zWSMvFxQRNc/vYPX4tEX1RUDJvAPYxFpg8tdTIBnymYOSkc+HoQMJ+fI4WzVL0Ivy0AXae6wQbIfRjpdvyvQb30DAUSPHHuVK1TvvOPfa4BsPJ2ywewH2nAE+7FQSFfcAUN27OsuP+vrWL4uzFa8Ix6H8YKWsIWlHq6Pc0EOXAN1XIc8+AKam87jp5JJfWX32AzD++78ongn/7AxNmnxOoyCkIH6UHtdOvJ5YBSSYHR+iVdpc4EK6g6ExwY4cyzXIg0O/m8e8+/hGoW+MPQDdlaLozMiCc4c+SA/5KERaNUZyJthhBnjuB15q5zijTNqw5Mv4StLWu5rZ+DoID57sD94rzHuzbUytLz82U3Eo8OOBOeDMAPBfQpebJmvxEwFfwyQNz5xWMo2RH4j138RgLIkm9kpHfl4EDKc+D1y6qPI1VP9JhI9D+hy/FYceznHyOKY4eJ9CegDWBlje7kNAU8xSB2F/4WilG19DA5UA33ZSdg5Z1lkEcSjv+IvXr2MzWmY/bKfwqG7XYAz7i+vH2XQYLN/2WZfyTS+MODXQMLk6LYhbHEQotiMS1uLa5AHw9HlRxng3Ag9PR35PDAKSTA6v8SrtLkApxHXqJE9D9yvRYjfLY5HQ0joe6YdXE6qwkgHEPDFB5GvK25RYKajIYc7urE7cgNvKSBEh7X4h+/7M2WMuhRjJKNTjI+FeHaV9/xNRnD+zAs8YNQ74oyYjp/XYCDRyuVtljc+lMKyyQLKlYkQ7NgiepuVL/cZ78yX+aA+x5c3DqCskM9slI58PAgZTsyRUzdrkl6KfNHZkyI5dBkJTPNQv6ssrDaduk78qW/50jbazice7GMVr+NCyCyeZoly8RKaQYT6safafzwqWvqjD/LV35VnXc4g4Jxw3CobIa6HjVlVnCnlTAFKfgiLzTDnjsdjIy/YLNwfR36DyuwHyzOIh5bndOTzwCgkwej8Eq/S5oLOxQYKvC9dx+g4XMqxkMC5lh/feew9jjojdS2oCcrD+8d4dMKu5fOi7lhaxRzemON25OFIY1kaI9Vth/ZpZBsU5XlF4duvPfBjl5vlgeU2LyuMDfMepXzv0DQS1jHLi3os3+88vq4UXe7DxcgbndT+Y6MNPpvKvNh+VgcYvhHKXiygXDIzB6UjHw9ChpNy5PrQj/+OpfHq3NaRKD36VM9s3Kjua2ViYLFrnrSZpD961bah8eyI9hw/YrANwB6uMnlfSn5Fqkv01agbjvFompaznW/LTxOH4bIHSltxD4zzQV40sMFnqXvKj1U7S0PIuP352sM/sjy0pM4VROjBiAN9lgc+IvT0dOTzwCgkwej8Eq/S5gIdjzWunJJd0zPahXOJ+90S/jUHb7USTXHYaWtCF0Q6ovoNf8/bdoVm4rgeilPxVWaQc2Dsjjx4gyO1zsJvjlf8R1gDlVx1T7ULlYMVlaklq8h7ePmQv5y3nW/yUXtI5niDW4O36TkjMohB6rwwgdyXUMpUuZrFHF/eOIAyg5/ZKB35eBAynOSMHLehtj63u7n7ub38cNBWKwfHeKIDZRI2OL7ruQe4rwTXQJOpzbXzZwJITgh/Lt751z1tJ8AunTNS/14oqCu41WhhLEejn177qzsKu3TchXeL+irexqfv0fl0oNbH4YzN5sHGKu/BZdaI9uK54CEG6evCsa8wm+zvX4cs9b+HwM+Bl55hPZAX99T4xGVQmf1Q+XZuhJ6ejnweGIUkGJ1f4lXanDBF0CzSgCVia+SisJEnZ5xofJ2HR81abWk7nZJCqdU5cY8Ib23q5UujQipk8DELBhrbUrZooZvdCI54389XG6Jjypf74AR1w6zhTdVVHz7Q9TGyjk5SBj4+EIpyZgPyqQc4OjZ5Y+S/YSUNIwjlqtpu9IziGO94jjaTkbM4Bkk8Pr7MxQZ4rvkaRLUTQajrxs9fKa+vXMQH6lYf9ec3bQgZTvIeOd+1jnwxITAnJXuCwS3ylz4iL+g19BRPtwRJh+PRsyCUpzLx2ugzNn2s5Zm2CKHKqXkdB1ge7223ju/MzR837ozz0inFa/TH+OmC+/6M14TeQQcpGxv4M2/Pby5EXcFDGfAbYqCOlU7YP5QbrCgUNyXRji/a+ZfK028FjlI+oDrYuRF6ejryeWAUkmB0folXaQsGhF7na0qw+/nHWLbUJbQHNNMcC6VCutHRYy8079nypaI8mnVWisE0i2O0yh2VMWJdtQSO3IDbCDawiM8E4iuEvaQEFmt/Lt4Zz2aic3seY8KFP/tzli0KxkLeETZ8Y5aMjV0H+WGzohuMcQNltrwNpm47chnxuP3EPDBYWgL+hyF4mKQjxznK165BnoYStzz4mw9w2c8tfum+7/nVLZVuHbrNv282258JvsUzoFllL6/jQCurNq18cph/g/zdEj7Y3//i0+x/Ld9jgk0CEPIDM1ZwfHK6ftcFCElYFWHb0A5bXbxuwxAyV7u216QjnwdGIQlG55d4lbYQxOwuZpi8v7JuVXParR+qlMfAGSsiBvTBCEEWP/Ka3olM/nxJnffNg2/MiC2OdyZzBOwbQ8buyH0VAisTZaZg+fMDMSCvA4qMOl754D80Vz78X5qvPfhDKup48Q9lqa5dwgvBtisG63+znUaS7R73FAfUdxxAWS1Pg6mrjlwOWzOgmAVFHqPo17gRMpxaR16VRVne+AHF7ffyRrT6lhGifgh9RxRafukD3+d1nJUinyUaSMnugX8N5k6/+UN6HzzJJyz8YzKyWa+z3mx75kGTy/Xeh8cHrIbg6Rk46VK40fG34YT3bv0C66HJ1OA690PtFe3ayhzlDyOcU+cTedT5TDOClsWMHHlq6daU2TrQW9dbZzTHi++Sw5nH5g5Q6LTSpOgRP/LaK81Zd35JeXJUGDzGjMf59/tIOGfsjtzO485zCw+/7h2Uy1J1nWIXagxW2t/GT7pHXleZccpYBxhgIP7uTZ/0N+fVy/uD672YgOxqeQ2izjpyX60h7xGvllknjeBjWh05yoDM6qc7aEPQ5y1/7fy23kXHo3Ko1whdrwFMBN51x8dK3tEWg3heVFh58Z4GlHmZDSgKBXNOMfDQuLvaBDhGQnncIFhWBBT0yrLlA/fTYz8U7O7AOvcB5/L8CD09Hfk8MApJMDq/xKu0hYCdJrDR7xchbp3x1PWtMw9dwUw2lnd6lAgHhv0vP8MlbPKHWQ7eO0xecaydmIhzZr7+3CVx5LgmnglFl+DAw/kllbg7dK9T76h3PFRKsMGFeEPpsXNdf8KAfPexf1KdrG1Ut6XpLJBhaedZqKuOnNeZASfvvkqk69v8JomQ4bQvrcuBa0BU0m3AeebmT/MNitJn6LEvDbte17Tx6e26zgb6WM2LfMYK1MUGIKrTB5r9L/3GOHH7wJh24Mt565j/l8A2kFCMI0qEY494hCLJEzZbKxoD6jsAoe+SQSvzdOTzwCgkwej8Eq/SFgp0OM30fGTqecdyExxzPFPJ0WGv9vQoGc7AuXhsouSB3dr+3t+Y7fA367BL4sitfr+KFys4hXOUMdFotxRbltB6Dc24KIxDy4BTfWzxw2+80Jx+ywdp5LCCMuq7lBcKyHCYLLrqyHkP0oweN1bZIDb2d3AfgpcxSYQMp9WRazXD0rDL2u8ZI185EvT9Fc3le78nXbZiMFhFXL1PxD7Iw5nmwvuubsuAPerjd7ERuoL2xuO0oOCxpeDPeS0mcG65LQ5BUi6tHp5ETKK9as/56oPXyDZAjgPq3A/JINq1vSYd+TwwCkkwOr/Eq7SFgors+cVyljqhZudwGnhsCztMg+QAW0VCBKNUHhs9cOQJjgzBp+6VY9kNHV2NzKUzy3fcjhzn0Agiz5Kv33sOqsuzOA97zh8fFTn2ldcOmOx3T4d8P/vP37Y6Ydf7+I1cALImH3NQVx25Zi+aUeJaLa3b9aafdTmTQshwapfWfSDE33m7TCtwzN/PA6ItYiYLZ0nnU2a2iu9/9ZBNAjBY9QFCH7/jAh4hiydIQhx06KBgEaEh+uxSkIq28nxy0ZYtB++JPBbNNE++cshXVkeTH87juRF6ejryeWAUkmB0folXaQsBOxpm5HDaWGJiGmYoagj+5mnv2XpJ+51cV6DoiLqPY4Q0RjAzf1wzc8x44Myx+cLyKfduLD5uRw6DsP6pn1qW7Yi1vyMiXb8i3Y0L7pcvBaFY8tSiHBsfEQaHeBStnvksBVCWZDM7ddWRn3PP/yangeV1vGsg6uArR/3lLTWCh6ldWvd4XRZsBo6VJjme8eNPao8KFVpBxHvSjL7zKN5mqLaoeR0XUM5Zd32BDLCX4b/bteApQpLvXO9NHCNxL4G1EW2St5WVHYOhIMSV1jQX7/qG1W20wX5pq9JmSk9HPg+MQhKMzi/xKm1B8HxwL1uzkaph7fdSFmcsa5r33fml5vCxo+RLyoWYhwxaJUcc99fhzFUO7pGjkytfYNyOHBtokB021mgWLl6DR++6TvZbjHzdiS4FqZxqeZ8MRLoRI7EvYYZGPeSwFICsKZs5qKuOfPX2yzl74WqROQ/0gZidT8PyeshwamfkLEN7X7BSxLR4wQrk50vuOAc700lFsUU9q2Mejw+BDOJ5UcGNYXh3Bl5RXd9iMz4Q4UEbZxBpPXyPj1hcXX4ck2S/+MQN2RGvW5/bSVs+sM59UH+Jdm11Jh35PDAKSTA6v8SrtHFCHxKwcjEL9KWzs7f8MV8dCmqduVM5lJIjft2Tm8lr2Rm/3r+OZmlbDu3meaCYeTJe/sztyDX6F6/KW4OSmFFdf+DHzAdZKTtXfET5p3LkFtGReFgSch4Qag1AxqQwVeQpgog2PIWvonn9+Shae6+St0PYTovXkVDWMJlMypEHSrlV+Xc9u7PITmErTMraBm0fve/PeT4g/XS+l5D3uUBnaLzgk7YgsM95F25nBXl0y3O7uaqA60aV/UId+aA8e+Dn6hHXVeWRVug5A/uDPhdxEBw73hpXyrF84JS0QRZxrCCOeutD/SI2z/F68I04+8ia5ozNf8RyS993PnTkB044ipTeX8ZELMS44Gxcg/lI6yfx4xzbn/fd+XnKgCuikIXXOWQaUN+Jdm3bNB35PDAKSTA6v8SrtHGCys5GWUOnro6wmiNmfs+71XsSnXGdQMc0wxEv87O8tFSPl2/0Lq2rQ7cKGtnM5cjj0RHeGlivzh3Kig8JHHnjBeXjmbVLZipHHaTqriXSV7ElI5UrjmTsajY08n6zedcdn6Lz1nO31X1J1t/SFvEeL2RJvuagiTlylIf9Al4W915AJyz+vUdvLMJjUMedrsIX7mDofCAUeTIvr8dEgfptXEU+qRWuv9EePMIqkqVveGqbXaMVhbgdNjDPCkviyDGo9gEnnnMGlXpQ3fW0SGkXj1z6wN9Zu5xj+dj18fIVG6ior7d6Nhc4sPFzKQ8Ocn3FhXVYYbK93ot0+RZGKqKIfPDBAzK+NFRWCXXYQ5Z2zIY+he84x8JrfnW76h6PBYZ9DHm4jdBxtGvbpunI54FRSILR+SVepY0TnN3d7HE0Dsr1+1cX3nclFQYdEe4QykQ94mzBjQN+p7NszJnfrmu9MwF4bzOJF4KON1ZzzsgtDMdNZcW9TufzqgfXthOXEgGhE4on0Ed+elVz3rZLm9XbL2vO2XGpzX6+wqVMlDtu4OMMK7ddUeJ605uMhMQAGUgOPES6BX/z+DrWU/X3PQ7mjHoMeIQLBMoIHmajiTpyf3wIx1E2jq98aK1x1sovKOQI0uqGHLmcufIAYp/IJEF5WogXB3Fw53yHPkdfwSz26w9e317DTWh638BcGLcjJw/R33H+upX6WFDV/0rxUTdPwLPl/KoXXjCFMi0f6rfZkFgpHFRmP1Q2wnaFg+/KsPC0W89nOSDYsWJ7GBgfkLP93/Dbe2gXVt9tfdVC9d/x24iVEZo9WrnjK80Ks1Nrtn2lWf/0tsJjzbJgfPtvkF+PHEyGcTuBckU6ZIu2idDPT0c+D4xCEozOL/EqbZyg4lsIJUCZ7EgYXfv9l0t2tt/Vjtk3SEnoCIxIuYzwhbVT8d5yOtze+5jqRH3XG0GRyQPrLAUpMsAInccwwnYcndaOn3zpKV5fBhiIG2RCLG87AD+ckflSXSg7lwKZz3gBZ0EHUhm7u57bG+w5VQcMj8nI8RE/zT4pC6yeIO7yWaxZOfKKtpiNJuXI1ebVjBxlk4dVzQX3ftXFJvm18mwJjyVqAKj2Vj5y6JHnpAHd3PqM6YTVg30E/80Rsj6MK/zyz7/fygG6MAL/Y3fkOJd9yWfG1l/fcdOHmwOvPOP9HcQhCuuguPjBIb+17a/O1QQC7W1x7y+DyjwO4BPXWR5sax/4Iy+8X6IaUhRq08TL2Vu+5Hkor/Y2zHgB/ssqE8ol/ys46Jf0vO1clB6I7ACTmdijEIN82hvPl/lX9WIImRnSkc8Do5AEo/NLvEobK7xBQrHCgUOZIq18gB+j7KJJ6pzRIWon/cMnzXk677gXpjeptbN6XFiyMZrLkYsXV3LMoHgOeLIBBngInpihK71R5M/NThhYGIqiM08YCRn0cUKdygY1bpTQwTA4KkbOguAVEW4M8jfPXXT/N6v28bpDFsxnRCM3AsBnLbtBNDFHDrmx3qpvkaelYcZEcbnuubuoBCr67zZ/QgaSvCOv9yvvJeB/GPRWwnO545tt780Qzq68jdBo1d2Xkmfor+ozOM8a43bk6kMuV9dzhB+992rP3XXaifXCIeuk9NU2A2aZnE225Y+yYkK+q/5F2PUxePvVy09bKVYYyvOgn7j3wOsv+KtkffA3dpD3GKy6rTM933N4f+G3HRT10v5Xn3a7hnysLTZqlQZprYzUPpJrK9N05PPAKCTB6PwSr9LGiXAMNJBWpu7JatOJngsHT3A+32Av8K1aPVSWetgvFcfnC3HdT/4FM3KktW8raiOiuWfkMgwcZXNmrQ6GTy7K6SkPBOAjsobeY1aAc3EN88K1MBbIn7OI8StjvD6WdcMSOZ+5X90ctJnioM5ZajDzZnPwlad1nd8/RBshTy2r+v6BvvJOBMjbG29WmtyMHHV1A49jDDRLuR8wGWooKalV7V+Fl//8B9SDogPMMwxnb3mTwNlbcF/ZeHenXZy4E/QENXv7beeLd9TD22AYxu3IaTfYJv5UjNsR6Ppd7PtG3hi1umNYz0P7gw1ydbuiv4euDwP5trakXUC/sONT11n5lgcGCFGkynM5INEQ5V+0+xu0C9GfaBu4IjC4zMUE7YGXhXKRBvnBEWuyYixScG7rfJAfvIPwopti46LN2AYqQ/oS7dq2aTryeWAUkmB0folXaWNFNEhdHu6xoHPEiJjnrKHChNOmTrFjwACxGqSidEaYUW4/9IvmjXi3eZyniwvN6chxzNDS3Phill0ut0hrvj3uhxhMwCBQyUueVreb7Ng6j5bPxgwMQqxczqLi0TxzzF/7xXXGZsU5I1q1KPf7LcD9Ot6H7JEJ8lCdFgPIL9psNpqkIw89aMtViHbddfQR8icdbOUZRhvHuw8/XAwmdQGGs8pvkgAPl+79P8grmfUK1PwD+1/6VetowsGMIP9xO3K8aCXOUx4R10umOPRnnYwHhKbbtBGsGLRdOo+3w6GN6JCRj9VxlIEq29HsAp0h+gSOOUhfYzq703I28vJRbs0KeHnipd9aPj74wKDfruNqpPVRzXQhi3EC9RTfUSfNptc0b7v1g9zMWxP0QlrutsLormd3i2/PgzbHByNFRvgtQi8nHfk8MApJMDq/xKu0cUKdxhvHFIDlxpKSpfMYhsMcIB4P+ZvH/v9imj1BxKj98X0jLdnBkdePMqTS8cfWqIQqzr207sYrfjNcf2ATs4pBA7PlH5Dyx1LlO27FPWZcp/x4L8nzxL28+vbB+IDRtfOAUTdmG1Yf7EoPlotDtz91XRCsf3oH69+2lW9wQr18gLJQIN+6XQbRJB25jHtVbnFkK/hyEfJu/8t9ZSM6wvageedmfBPbrjX500FU+U0UxseBV58uvDKo+I66XXNQt6skcxhtyGEKNru5LIsz9HxOXSder3zEyrd6qEro8e1gixHiDT4h805z/Fx1Q97IK9p5DlA3YK9wu8Su0WB5VXPm5k96EdKDGBiReAyaaa56+Fr1T5Ol8sLA+98p/6o+Y0MMPqIstKnFQ57ff3RdqYPG914fxBEiydLet+USyq3kG3JkmvKPckJ26cjngVFIgtH5JV6lTRJtg/nylXUabFApVJZ6WgWLTiMlG07D75HLYUEx/68/tlE+y7FBAAtQWW1hOuYHSArvkwOdN1YSGDcjg2Nv12sP3t7LN+rlRzxWkjn9T/AaDKTajoR8Fqd+yKvIcRaalCMfBjxZAX0rszwSnIXkp7QZ31RlPMNQ0wH6Sg3qgxkdQhpxOyeOvZ4LQZ2PHIbFWabaUi+CUUNjWAt2S18C6zxuqufhfRBi+VAf+srrx7gd+TDgs6EHbNbbUjhyhVFHHGPQiltRpV2cJyCW2uM48kdb0YFVbYn0a/F+Cebat6Tu8Uj7b279w3alI8pj+yse5UwK79z8CfJd6mHxErbC46beuKbonLefjqNd2zZNRz4PjEISjM4v8Sptkmh5sYbj8pUpuRnCcOZFl9gvfBmtUrZRaM6ldQweLB5L5N959B/tCnVClAGEAUQ6yzWS81MHnShKnWBwWuWHDLFsDsbBOzhnHbD0aEdl9G30t4/faPlophHXUiZRxgKBvKKs2WhaHTkeL3JhmfZphQdHQtQJ4THO+PTSEdWB4MY302lfmqWe3dDuqxhU5nxQZqwoE04GIfc8SC+w1wPMsgbOuAy0825x6AY+bBTLpeQzBgUDyqwxaUeOOuPxS7QMXTfrZlTXESF/muG5p9hsHvKPlaye/JzPSOftEpOxdFHyxa55laZ8GecyvlGUb4SBNJw4ZdqXb5QV8UkBPGDpvJWVkS99ahNh1HOmeZuvQKr9XO+Yh3RN6W2bpiOfB0YhCUbnl3iVNklweR0hGq5C7cxDsdRHpHB0Rp4yjOackTMNvKzh41hHj+EFML4oX8oE+TY8S8CzwzICymui8DrFm6eiPlHXAy/rETpWhPUJ41OS/FG0D7ItODPxaweWdwIAPz2GYgBNqyPHc8vrf3uvmHS5QR/bwZ3rhaWhDlx6vfEDdIKayWGVpHK2MOocPC6SjJmnlVM5YeSLsjmQE2uFdbZDe8A4ZpfIBzpNp+UDuVFurUzekRuvVuf1v9neUy9EgXpHO+SgDZ42mOKmUNf3Oj/ns+a3xDEgs/L+4uG1KsrL071xK8cKULmI6zWxJU+fhddl9Zc9CWBA86GffdW4xmCklZv+uI21/9D3rz90DevPe+52behv0eUIPe905PPAKCTB6PwSr9ImDRoP64zqKN6YmJkbf1wepjrJbXNWBN3itGJuAxI0bLNb4NK9P2AZJJThUcWtLE/DcqWuH34Pcewo/FudTHZRP8rS4p/d9W0XE/6oDiDWRxGSngJwY27Xh7M5rrwTAHgb1lbT6sihmxf81/9UZrFFbiCkGTygo7hi3/fFt9cjZKold+XJOsJJmuPtL2++wKNlcgjmnNa5Y7D8MSg98MohcGUozUxi3JlGsGIHHjuzvMzZsO2x18PCUVZkJu7I/WmBMzZ9zAakr1h9jvU4VlawRwZ68Q3ag3Yn+EJe7mx7wD6lDWNoP6yw4FsR7a03I4Qoy6MgzHKPywvAoK6vDtOA/a88Jd7tT4+Og5h2rNmPdyZU10T/pD4jHqH/no58HhiFJBidX+JV2qTBmQTibDxTdPBmaRgtosPtOfoElazcp3RlkzMfTkMduRtUjNaVt8Hzjpl5pO9/6TcynLjOBhtRh0mBS7QWsh4ur3hGFbOOt938webwG3ivvQZCPeQJWH/A42qsE42Zy8XQX96JALIOYzobTasjF09m6F7179G7zPplWTbC2R889YBHK+kU4SzQFt42MctFnnDw/eXNF9DFMK7Im87JytOjWS5zdzJtewf3M/w4BnnDcjOuxWBjHnKfuCM3x6r73iubrz2IN/GBYBssKNX020rkc6Y5cuzV5szNHzcerN7OV0Gfo4UOcnkcbWfxz/yzHpNlfh4GYuCA4KKd/x/mFfmK1/a4Tp80MHBjO7IZq8GqVwxBEN5REYOb6J/qs9GubZumI58HRiEJRueXeJU2SaCDME5+TNF9aVANiQ56XnP6TR/kJ01J0Kq+0e8wGmWzG97iVYgZt8YpnDmS8fKaIkPwPWGQFwyESvtaiPvduE/qs5XrnryD1SmDElLUz826HUJObA/kic7K+7u95Z0IwFMtz0E0tTNyOF7j46Jd34x9l1aVEKIl+L1RpMgEvmGO4uXmPXiTF/LAu75ZDzkIyDecL1efvJwTRchLxtVm58YvXmVci7sd8NaJAlaXoh8gpFPnzFPH/eX1Y+KOnPbCHaTx/vjLNhh3Qnuo5trdUCYC9svW53aXgZSuVR513hzYQCZxbNhz9DFk4D4b7Y98kXsrg5i5Ij/kUefJsirUv00CoT/Y8xP1ibqUe+SuP/gd31zXNTbAscFfm0e0a9um6cjngVFIgtH5JV6lTRLBC+M+C+dvkeZ8vuOWC/hiB40WZ7xrjkbDHDmMLDq29DUU95jstes2yj2CR85uwUszLB/cl1wEQ7xQxOi4HPOWBAyyO2T7Tc/busN2qjduBeHeP2TBWaNfW5d1okA+FOQcNM0zchnlVXzLFcmEJrlBpse8alIU6aeO+SIQ1Ml1Wg4H9bN6LVLd4s1tWIV5xy0f4TPtbUu78lYpIvAoZ6YZqPNlukRHbgNAzEJLX5wDk3bkGLTK4eoY7xNnfb3eIoVhMbQDZqb5yE+v1mzbB8KFR89bx+IVg1o+AVAEGbKNQMfImUv3sc+gyq/N8/j0SYG6iNDaWp9iRVVUo7LKRGrb+OyffJHnRx1qnY78gHTk88AoJMHo/BKv0iYLdcIyMzeEcwKvnL2Y0mD0jJ21cuZG+NNq2Zw059K6dbiztnzR8rIu6PkpUMeMYuDcyyNGnk/N86QQM7uYPQA07maMo444D0uo7IusXGuEVEcd29Cledft/8Gu1X1XyKa/vBMB+KgNwSCaXkcOHdFGwgvwQRqTE92iV6eerSBZ8fjT8Dn00/HhCTgc5LcRr/JVOw0q70SAdvrofVdWH+8wVCsF+MMwVhLsN7x/4d2bPl1kTQdOntDuWqIP3ZkLk3bk5Bn54TaXheB73VOx8a0awPioHM3FNPuD2yWjPB6mvrRKHxopeaq92e5t0zP8gzskV7Wz8qE8qzKC/0mDvPCJldW8JTSYon21sRMrfLgtwckC83B9jtDzTkc+D4xCEozOL/EqbZrRe19pVfM2c+Z7sbzFTuRU9yJ2tMqwWNoKG0lzdsE6o8PLQUX943lrXu55KQ+BHx+0/++642PWqe0a5GPGMzrnNCOMyWfw/nXWTFanR0ZO+P27j+mraHTki6QfyKc1BoNpapfWOeN1A2MOHasWNOUSpsV9ABjQryWO8PljLzSX3P8t5QnZwmlWtz7kRI8vOyCZoHzJpnUKeB/85XyXN8pBkVF2DDDaRCfGZ5qL7v82y+4va76YFkfOY4/z6ZPXtS+EVNU/5BJjGnyqFu0Qr4smb3FLCXHPW6taIrVwrMQ4WRJWZ2BL4vZJXDvNAI+yEbCL1VMuXjmKCX942Oo2HkVjHl7Huq6S44rmyoeuw9lzkhy5bHIMmKHnkee4ETyfKILSkQ+D8akRs3UMzBCtwfGWocOv/c61DBpW9ygjSy+GzKjMyDe4EUQDov52jN2uvN7zQhCzK+bB/zPNlmd3+as3wcfiKMFSQEtgqO+K5omXnmb9RFHnCCRDvAFLX0XDIGBwnvMF8jqujfpoamfkvioh3ZOTwKZIyCwGQ9CTduBnf6EznlanH379JTqOs+76Ap8lxyC1OGVfQekB7lPjN9f/0Nv33fl5y2dds//l33rWyr9Seaf4/jXOUAz84M2F1AsMJLyeJ4pJO/JA6EoMsPEt8qg76oz1iZCP2gTHGoSdddfn7Fo4Xn3e9JQN50o+6Oe+V+BHBzfzXF6LsM1c+TjxiRZMPnyQ1s/ntAH1ZOiDD70mO/SlbVdWF3XlER5FszbFYDRuS1g+cQuKx5afdGNuevLFZ7kxE7d5thza22x/di8/TX3XoX1Mh10YJ/rlMV8EpSMfBegQATtGBztry+f5mtTolFQ8+w/TxfuWng7Fw5KRroPSqd6xvHnVw9dbRwz1tFwszk0ePmSXUX6Db/iC4i6Wc1sqsL4Y4XpdKRCXDYIwTCE/AB9TgAHDtYPynC8g71LmLIROhfOKfvK6xSl/Qah4iFWd92y9hI86UWSV9wzHwDj+oMqI4DyJ2aDHo7BzGsYLxg7fDFi97U+bc7ddaoNOfKP6MnMIlzbnbUN4WXPZA99rrv759TRwL7yGr5gpz/oZ6UHyBWvRP0QzzU1PbTO5agd2Tz1PEJN25NQX7Asxx8Ey4Fw8/58f+aVzYERn641QhQiwolGWwW0gUJbaMfBft4b7czAIi0sVEUX/wQ/YkEv7EPWr+JxWxGO+qD8GM3hTHgbzIA1PZBP7637gpWd0PWSG6ytHHv3k6oev0clzUOxXICFvayf2KfyvBkjjon55zBdB6ciHIPiN5Uce2yjw9za+n/e2sUM4lCsonBI6GX7Cx/VV5xUaQfoGH+TPJbg3sUzWlwmISTN8xvL3bvCyCx/Ib3GM4TjBDYQ0TGuaM3+iTW+qlXUSyAh1dFBelvCE1Zd1hJwH5DlfIK8odzaaVkcOQwf5YdlPhspgOnC2zYrjPf+1M5fGGUVSyNUP+wnp+g3yEcq5Hol5tds3O8WPA/4DrtQvnlcRueJrD/64edstF6ov+UrDQjEVjtz09NSNnmbHqt95fHJA1PIXA5uQXdBlD3yfMtEs3J0b81nVXL73B3aGz+rtcvUTbQSL/EAYALNuWBXo43NaQXsI+UHHuYH3/c11B25VhWoBOSEpTCU3c2KSgLxYb8hN7Yu0URw5BFr02giD0wHFjo1qWZwIgtKRDwGNqPGqUGmnYkbhneWsO79URpDFoDKwDuYDOrzhSvUFLB+foaLjtadCgSyCfmmJykud9Iq9/9mucQfOF9dAjpJlzes0AnyGQUKduTPVK90aNd8HEGTR82x2WO4VLhDgIWQ5G03tjBwwPiBD6hBmfDD2pkfv3fLH3GBGw45K4I/BA0NbZxl+P+bJTu3JpPonyswSys/4Y1a055iREsQlLK8mOPHoR21fGFDXeWLSjpx5Qb/hkG72NmJZqOeK5juPr3MuWoqBjw4EzLhPu/UCzsCRL+0E81rFzxXHqSLUNwStY6wO8jr2NQNmuuHkphloA0xw8Bif6zU260mn6zqC7JhLlPg/o6VpXO95YaWnjYdujEiep2RbFTlmCn5PFEHpyIcACkYnjqUzH/Fp5IxOg+PVzdlbP9c8/5qcORXCtSAUA98NlsLh/NaQYaaN3znCDM2xECqswxkaajxyxmtgLGDQB/A5rZAD131D1BkO2t2OiFHvsCCGx5qbfnsfZT4oz/kCbcQy5qBpdeQaBLV6F/2G8jTdPGPTJ8g75CYRej1dnsVpGCR36eRc5KcT/VQM7IwcNeN+IoM6br89f+yl5iP3/pn45iAEM3H1m8WYNU7ckRs4yLIQul4+5WtthvyxVHzEBvqQRz3Ob+Um3nGMXelcefF34eM+N2adMBBsO10YAQFCiM8Ga1nf+TJbEXxNOzRJWem6jnqv5D3qul21HhF1Rrrkd/aWL1FOnNG7vQi7jPvowyhkWMrqHX+OnfplMV8EpSMfBudTI103Qq4wNET2O+LYFSybWbkpRvxDCXD81rkiTz1vKmKnBjGQgsby0fUHbrdrzyEPVPT1lsfG91N5C49TDDocDnokO9T9yRefcVmB2vcp4xiOh6sT1qHO3Pzp4/I7EUB2LtxZaWqX1p0n7l6Hc0Ca6R9ntvwd/K7ie6gxqxOFDqrOlGtPRCS9c1TpiiMPPBDYNwMPxbRApeDv6+3vnhcM7/rf3sPP2Ypf01noAQbGrAP6k+qwEEzakdNpWP1YN8+TZfnsEm3zkXu/WvwDVyp4IOkFJLM3fWOsrgO2mUOTTbE6muxxLq/Uf6Ub9KY4u8Z3XtOxgZ8BPE8b4q1+tBWQ5cY1fPFVrOpIUkYeRAqAFT4ty2sQIBupthhtRi7ZlqyDXNbjpkHymA+C0pGPCuOXBshCHLebWmQYgM/s/CtVmBrQKkfZtV5ds+0Qvvhj1HdujDyZYMBjJ1TwkB8Mhytt8DLVQH2NZz5eY8YORopvKYs6llAGiTFP/87j/3R8ficAyC7yno2m1pHbAAh6p9mK9IxOnHLV7I96ab/h7Vh410CItZZvcdoWh4bxJyTxNz8G+THJf+9J87iOK5lW6XjPd1mFIp+ms8afPlOrVQW9O3zh8p20I+cmNWuH2KBGJ+x9U+1ium8hNhaCarmpTUThtPBEwun4gJDlB7sRt+sU2Plvvs5jka7HbYvgR7LGoBnxxbk1NU5Qh8Fz1RZsKxvoYUNbb9u6nbQ/tRz5lEs4cAwaLY58rnwoXpk7AilD6xuQsbWFH4+bos4niqCxO3LIAw0VnSYUuzaYXQYUSIZBHfpzO79tqlApgoXY+YtzOXL05dBaUaKzSk2hSDxk5+8vr2sIg8kZi3UyxHGrAG+pGzgSNkIa7pm/9LtX+RlPzVCUTwHyhl71lTcIuBZiJVnm9XIzAvzBC2siX4UwiH48zTBeZQitnr50jRet4N4s9260VXU9gyBcGPFDH/W0SnVOSfW02hHhHi2eYcYXt6K/L0X/5pMQTkWf+nijI8cgErd4cB15Wxr+6Kis35/5k481h1/T5kRw2fJXheDb2uhvrO3AI191O4zsGjh8Lun7QE821gYS7tCmGeHAwTtn4xykavVutBk12vcf1J6Y4LidgJ296qEf+hnTS/3ymC+CFuzIIexhoFLZuRw1ocFgdIAuGMph8I5DBaTDWakvfpHUSVfeo6+VxUh5zT2XNlc++CO+ShHyuerha3mP6+pHrrP4NUzHaPLsO/+X3rI6CHYwOBgspSLOtsdGv7/u0ZGrHlzLe1oImWaygAz++03/c/P7/OSjXW+dk/pDuHMfUGYNlbnK8pSskSfy/uqD1yjN5Y3VFBpdv4bXR9ghlCV3l88F9/1Z+8w3yP0GHB4gt+IH8CVKjB8Z8H1aFmES/jAyw3d6X7f/tub8/3qlnqqwdmZ/8DbmILePv8UGHpGLfoTbC1c9eB31KPQK7bv6bvW/dtlVDo9OfdygDqEtVjUX3vc1Ohd8hhR6HrqOPn+V2QOEPLZ0XFv6whDI+bmN9VsXWsEZwM+UIXwA5KOPLSENg5Lzmnff/qmB9a2B/nzJTu1e16zc9c8GBXjsd9A104R+ecwXQQt25OoYs0MOvBUuFQ4C79BmjGFA3SLO5yGtjnhzlQyedmBrhidDEhtRpHQOGF5zdlyq2xiyOqfk21mgvbn8qPpzCRJpFmrwM+AaB/WH5yksBgq6ZDIcdE0/ZBRsAOXnR0ePx4VkSDQI06Y8fSdaswMZmWkGeYQ8IRfy7L+hDlY3yV51PvP2j/N9BJjF4qUsWIXYe+SgOerXTVexjgQvbyj3B3W85/B+3npYe+A2Ohvs70Be0X7RFtG/2/bt5XUcYB1RlpXNvmftGH1Lv0NGCsUTZNH+Vuc1DlBnISeWqzSFH7AQL4BxPb7Jfnede8s6fE/e6sG3+jn/s4H3xLXSwGPkgTpDHiaHmpdpBOvrulLi4J+rS5LZMECWJT/0d0vjoKDkO72oZXEiCBq7I5ehtBCdnA7KDc5GKXd/fl0DjULUwxUxjq89eBsNIl7RytmKG7xQ1sgDiGUhdchWgetzugzVx+qFToq6w/iEU54D5VoMBMJh+Gyzzn82oDNro1WrazimYUWa8RFGg+22DnHjC0bQ23GaQX2rj92JUS/tOOpVBkEwdKgvzsEO6XD0ro+xCS1krjwM/uIOHiP0MvgbjjdKpkpXmhyrrhkXcN+dfcd1CWniS3yEnjGddqc9b6naN+SrdrHQVy7id9qD6vsClD/Od6c0J+i4/RrLs9TVwqWQ/4Lhcog2k/5YXaxN38pVvKqug2B1p9zcNrA/My/ohMt7itEjixNA0IIdORtiLtg5UkoJuxhj+w3oyauDYD3MODAOY7dRyqOZ3Wqb+fy4WXXPFexwNDpULp1T8nAFVn7KE8cx4+kyODCpBm10HKyjfg89kCH2OM51aLnNDB/OLQ5G8ShjLrB8u744OOSBlQ/IlmW1+SDfMIQ6nn75SxbGs8tL8nPeI0647Aw8N/Lw6+I45BKArDhrtDgHA8iHjlMrJBycYoC+/lzlXecJeL7jAuvk9QevDO042pvtz3pbuvVT1sUGa4PyGgsgAzgX8MaVH+eF0Dno/5S7n08ZwyaAT14/B7ACUdqkrrPl77Z22lFsovOvjYOtPOYC604dkDzZ7qH7Fu8/f+rQJ4v5ImjhjnwYfISEhokOReXjTMAbq8OgQfMPW7BOHPWrA/J+FZXTDaArFl9RGc4f8sC1rsRIQz46Xg7ysXrAEbPeqi9xnKPBuaEjFTAwgtw8P8lR59XlzAWM2hlG2V4uyle654vyYBDKYPP4vKYVlDN1pkqPukInS70Dql8BZWrpqH8MfDh7rY79Wsqq5Cm54Xfx4Q4ecQzggpcxQbNW8OF1cD40YFTfCr5xTjjHctyX32KD5bi+hoMt8oOsqZsf6LEHghx0f379YL05SPA48mdbWZuNcP2kETyzLXwwUtpnBP2JdiZcd2Nwg98GXbOcELQES+syogUmcI62KPgqvaOIzsJZHjqQjwzjcRQoWIQyOrimXoasfqdxRBz5daMjDoUZTsnFgI5KnYAsYHQlj7kQ+fB6GDuTU915e8oaAOZjZUWcIfKKcyIf5Es+3eia7OvypxW6LWB9rJKF6hwy6q1H1Itp+J31bXWRsqmP8dpMP1/5KWzPtzbcgNWnyPdc/sZylqh/13zxPQthXypejzvf+2mdPg5QvpChOyWUy9DKLoMN51f3dTVA4hMu5H8IrL1YV7M/1HPWDfkM5mfaQD7NLnAgSFmoTpCB5FPVdSAkQ8iV54ec7TfK4rjzpwu1LE4EQWNfWtfoHJ1axiaY53GdT0fB+vh9VtSVThr1Rcfy+uoThVA2zVZUd3RU/X4qZvQcocsI6Z6urh9UZpcgx6F6cIXiBk/DLIL179WXSAswD1yLYxhBCzXjaH+fCzrP4lwZ8rRiTPUb28iP9eIV6Go39LM8KwxZDJAH6wR51YNEGHz+pt+53IzjyvHWszy1F2Y6/XlbGOU6lP/S6a4GEF5HDCrMkOsWVjtIVJ+z852nNn38PNa8lfIpZ+iZ/Qb++TvaCKH2LVCW7pjnQgyYOGBAnTwf5N8FHSbPrl/RZpHO+IA614jzIDPZBV0DuY9y/cTRJ4/5Imj8S+tTDnWAaHRTJO8E6lwLF3QikThxqG/COcPIt/2xf8PYJCEe4VRjEyXsh/jVDFvOpt/JYIAxKL9EYlQEnfSOHB0LuyM5gvVjdjqkWfy48xOJxJIBM2zNqH22hTj6pffT/vOXGuQFofGn0Bw4biHh1tg6n1HzPPym84mqPonEiSIoZ+ToXFjSwr1GdCzrZFzqYYc7/vxEIrF0iD5JR2hOveyzmKK+qYGGHHaxHbAnFa9Ix+9aQoetkUOv80kk5ougnJED6FTsYLFhLZbxfJaeSCQmBzq9Noz7wtOwNB33p7FhK+7Nk09ucMN9X83UC8LWwL4A9W+JxDwRlDNyGAZucPIOZh1Sb12ymfkSbIZJJBJzwPqhdnNrNttuBNOLQAZes4TQ8/OYhSOOgYbzxt90ew48M/0mXRMDEQ5OqrwSifkiKB05O56FuKflo+fSKTG67js/kUgsHXTbCw7cjvE+dxtwv+2WD1so5z7omqUEn0jxx8vkyN2p87E92RbaFf6miYGW3/H74DwTiVERlI7cX42IHev4+AI/iVd1ukQiMTnQ4fGesjtAi3//0X9qLtn5zYHnLzloK4wvOnN32Ove31xs/J215fP+Clk9GhUrfOnAE4uFoHTkuL+Fx82sA+IjEnsOP27O/MPN71vnw2h60DWJRGJpUDs9rJBhoH342KvN1mf3sc/W504CwZ82y5rD9p3q+KIhPtV71taL/d65nYffYyXB4ng0rT+/RGI+CFqwI4dSTjP4EQyE5NU6D0b33pliyUv3sNbwC0+gPUceLTPzeKa8XM80z8/yinhn4fWJ+3qKyxhRblFfHkMWlfGsZHHCYL5u4MpbmULOzofv/uVviPPZf2s/v1+q9kN7aAk2zgn+Ir86Dy1vtvxzVQa/2XXlN0Pc3zwVAzvng8u9yIt52rkxE8OjUsiH6X35lvOdB9fB4YBspGfHXeN6udxRdNNkcekDf6cvqdqf9279gv+OdtLv3OtisunPY2yINrUw4gA+UQk68torzdlbjE/7jXoF3THg2uV46063FlRXHdd90M4px+obMbChbnPlpf09bPeCgD6CPL38GFDpuELVl3Ree47eshe2AL+rbuK9l8c2X9gn5TdOBC3Ykfd/X3XagO988x64CZcNaDyzQ3mcDeCNu/W53ZKKGYldh39pv9l56GxsGAM6IRVu+XTEVTsu5+wBsrryIXwPHXH/Tjq+mfzw9c1KO6copyt8kWlffvOFOgA6hjoHZW1lhCHgOewwSPd2oKNGe64gH6ff/KFmzfbLmi///HvNXzz0o2bd03c3Ww/tbu5+9oFmy3P7mhd+91L5hvZdh/Y125/b1fzYsP3ZvdIT/zTnv9nyOW9jPbXADow49MNXbcRH6IR3Vou3dfE6GEod/Fxdrzoh7czNH1f5cyCWkJkXrocMfKk5yl3OoLG0Non6H3gJ31XHh9Ob5tqDt0sm+J064gMepEHeSzHQ9rLYFlGuAW0XdPj1VzjoiElEGWzimv78Ogb1D6u3he/c/LHmaw9fV3QX3woH4tvr5dvhkBGvk/08vq8gv9W03ZHXiQLfp4cN+9qDP2w+d/83m5XbrmhW3nOZtQf6uj5/qv0Mqk+xb96O0C3ZAYt7PYtDpw2q+r7bRPGP9u2V1TgQtGBHPu2EbyyHQKEsFDg6EZfC0EDemUz4MPL8BDP+2P9rD27ib7zefsf1p6LRo7FdEbsM7At48803aBjh6960ir+J6Y47PoRff+ga7RyGYYTiUlHxoo6FGyK2B/OzDlLJlXG8YtLljvT4/d2bPtlcvvcHzfqnftrsf+lZby//hraFQVaTqBTJaqlD1DfiOot/ddoxrsx877F/aj5679XNO27Cxio5cdSXndg7MA2y64/qEYiObKGB8kK6X4f8YBxgUIbRFhtclkEOyvElXB5HeBIAOnHRzr/0Ngqaad5+84XVOSZz69sc4EHeWCmp8hgLvG3ZFh4H4ERAwe/Bl59p3nbrh6Qz9jttEXjtz69jUN/US3swKWhth1MVR/SuZ6XPqLvssaF65j76OuL6Pv4CqbIHoHLkEdz+2G4D/rVPbmoue+D7zf9gg3kOCk3fNIAXL6V9qV+Ka3DftifPxbW+slD66RgRtOwdOXQBBpRKw9mWj7A4Om6VBkKHIy/KYw0NI48GjkbBhzZwLRuUhnqwTLqErz78X1RdKracGikiFmIkjdlOKKvqvzhKStnDccNB+kCBcqW8vbNb+tl3fr757mPrmgMvP2VMHWPbgDcaDuezCvoI9UK7Rug1xcmBmvw4kvcefczK/qfmrC1fFN+sv3RGjt10AbcF8GUt+x08M931SuehnjICoUurt1/uJcxO25/Zo/NxLfIwWbAdmEf3HcFweF1Nlnc9t7dqK7UjZnpwBOFMKGvqjGQ1OM9FhPOGMOJAOHI6EvBs2HX08XbHPdrRb5l0Gj7Yhj1YseNS1XU252npcORyku7wMEi2ULNepHmft/y8iRdEvZy01Jsu2xAFHnntpWb9b7Y3l9z/reb0m629WD/ji48pG2yAyDa3+ke/bOWhc3ENdaL+bQwIWvaOHIY7eKWAKWR1+Oh0/M2MwdZnzFCYk2Ars6XVsNcduNUbSAoW1y5FQ40bMDj1ILpXwXX8dTsH58pQQoaQg2TYn9+JALKk4+MjPGgL6xy4P2ZtcvHObzV7jjxMRmr7UKIWQbw+Fqlj8rdw9kY9qw049rC9LtJa4BqkAVjaveqhf+CqQPBedAmdGnHMNlzPdI4cecQJkyGW+YYRZuTU2TBwdi1nAm4EQ4bLFaELZ239kreDt4+vqux/9WnXS8jf5LJRq2Qh77GD7akw4kBx5Eatas1wUPi2Wy5kvZbDQAx11aB1DQemGrd4n2KfsWP2P/Wfrc9qYMoBml+vPoH2g21pZdLmswAyhor8Pd7yJFI50CkeOEXZx8yp38OnEDA4ZL9m39MABlD9DRN4T0DQSeDIMSOHYE3QED74puKoEQI4vhsjftDMG6U9Fc5wmV2jaBhoKKLyqWXRReB+uCppilt5yjbW8BzIkHWvRqOLUf8waHJW6tSn3fyHLBMbhcAXeXGGcIRondbTWY0Y77MBSvPzvJ7RmfnXHIMchP+sn7geXw7tD90H8z7WXHPwjubdt/+HVofQwS3k1+tcNpxpMA3O12Vnsxg4GixFDiMs84fRYxkbNSiIWWgty+UIrgSZbmBl7DjyNrro/r/iOZSPy51xXxodK1imwogDrSM/pls67szwf+/zv7SZ3oVLN9gYIyDjWFkIfe535PzjbQV9VruoX5Q2A5hf3HNfE5csiLDCOqNe21LFT09oiMOoAmxBpOH2yGf/+dvN2287nzzr1qyce6mH1UEDbulByGlcCDopltbBpwQPRFwhf4MTMcXBsk+0GgNvRCXJmVMBTdEwCqvl0FVg2VwVtE4HY+NxkmsxNosU+UFpMePE9S6/haJuD2yGOfz6C5XcRTAOYSBKOtmLdOcZ5A67jLp54FE4bJ/NidrrcAo6fTFElvAmVmhIXobnEys3Vz/896qD6UR9y6bVDxksDiajY0NuJsNRltZ3HHqAAxwaCy9HI/525rKcAZm9646PsU3rtoLsoxXRb9vVCrsGbYABIu5n9uW36HDdZZt6HKhn5D18ux7tPvoIl9kH5tkhsL64x211X7n9stI/opswtD9hW7YdgiM3HYbNpbzavt+GascesS2UgqEgO/ZhBqnYESRV50ZaSbIIbu9xhm58Tvo9AUEnxdI6BM77G1AQKooZRuNds0sIX0YWu5zDiGscHWSjOmtAGPmv7PnPPBfKOEgeXQN2bIMq3VXdmSCjg53sxZG4DCnHRZjxxCrJe7Z8sbn7uT0qFn8M0RbkwwcVxTnHb3FYEZLq85RPe377e92VjfiDoj0/eDqT+n7HZkHIQXqk2UlZYfA0zjIsDmcTegjHPsqMnEuR1FO8uEjfHtfs3mZBnv9yBvoadh6z/Shzb0c/VjPMNO/bcon6NPqm988lmfGiLa280ie8/HDkoS6giAfPeMx1YJ4dAzeqmT6v3v4V1g39jX0umsoo7CmeDJKc0B/MCZpuR7uVdO8jbf9fILng67YoZIklfdB5JU288ND+4HjP4f0Tf09A0BI68rrjiVpjO06SI9dMeo1e84hjCBrHVgccAzCaLfUrkR8by1jKU4fFdZJDOYbDY7qWomtZTSNkcObuMDhH9bNrrG6qn8cH5FmjyLr/end0SLt87/fYMaQcwUsVuppwUO8OuOYZKZxp48Bn4yUvC3ENz0FSRTo2oxN6WJ1URct5iEQ60+wPN1tFvXBfv0+nou78vaQr5AxmCHEp0s/X9cqrTus6YkCIOmlWY32Vs7zV3OmNzUei3jbXH9HaA7e1+bl8QuZjRV2Wx4HeGfnstPZJf4SuygdhGawNKnOKUOvl7PrctlvcI6+va+XWpiG+WFSpiRF4CRjZj/rdjntP7CX+1l5TE24DUh6Ff6uP2YGoh1bp9CSFNsy15/G6BSBo/I7cKn3Xszu5/IVdp9sO7W62/stejsxgpMYNvK3tlA24Z2mC4/0XM7QQIIXdzjKBwY68nbUxxLKsRS7arechKQfmtaKMJLX0qTJrWU0jxu3IiXKNgY/vScn/1c0f4WYukcuZf9SpGHXScrh3NotqfG+E4+hfds6eowes3XfTsGO2fOWDP2KI50i/9shaPpv6vUfWUQd/fvgJXciyq/IZQaatXGIwwDj+cKlXjhx1ZN18NB4zlJBRLSvpmsJ05HLcrEtPX9Rv6FPYOUxJ25/SE132IrVd8+YMnT5lwjy8n1dljQXBbylXbTSqI4de4Xl48F2Wm8NeIc9BZU4RgkfwOwlH3m/v+7HryH4761jbf4OVokLQHR22WmU65ROD/n5fzrM/skHSP9Trv735fDptTuBKXWAHZAu4YZX6DugpC5yzEAQtwYxcu8ajwRAvy9xMj4qNB3GPEs41+OhfdotzBzpytpoaG+QBI5qZ27U02gabRbAz0pBrBBZlTCvG7cghayot5O/XIv19d36er8MtZRcWBvEiE46HzkD6e4yb4dY/vaO5bN/fNWdtucTKQbs6b6Xstn3VVt7JHODtvVu/1Hxm5zeb7z52I18E1K4OoGR1Vx2G0yg/87aD2l9lo1wO5OL+LMtQSJ78GGE6cgPqAvndYCEe4WPdUC9Ls/QDr/6GcijtEIbV/iCFmuFxvO8A/Q7vPEDeSyIf8quwbZfRHbmzz/038a4G6A/tSAd2tdd6OQlHHnnNDsvLZPpW3u5a3bzjlvObc3Zc2lxw71epLxt/fU9z8OVDnhsITlxtEpM29nke4w/i2DcTNgLn64Kjr79MW4L9L61NUF10+80A+7PuXNXTzkG4EAQtyYy8CHQjKmGVxD0/d3RjB8rx+xdc4kDZFoJ38BUhMHhG3rZfjxH3Ri6PJcBRIS8rLxQzl9Yx42qv4ycfTSbvufMLVHp2AJAHIeM4LBQJFuI6LEde8LM/t7zUWdiuiKOzYtTrbUGH6vzWzpV1YceWHkZ9cA42rL1z8yf42NuGp+9V0RCPRfSOAeyCDYZmmr940GTjeSmf1hiRD88bodJ1jDAducvD2iXajMc2AINTW7ntT1qjCnI1VZuUVCZgU+L+l585boAe8bHB24Lt63FgZEcOp+BV0WOusIvS5S7Yj1ovJ+PI4/zBUN4VaCsk19rJ4nFSDOY3PPVTaw4aIjWL65k3EQlxHusE/GGIw8Ovv9RcvOv/a3mGPhs4oXAbRL6cF7+ltBAELck98ngHNYTIDQ4QplcsOsBYYXxCgMEDhFyPeEOwgxx5bbRlVJQeqaAL4VTWr9SmBzQUBiw2o6jlNK0YtyOn3HlfyORt55+95Ut8ZaXkGjvCo3MYH8GKCxgGGnI//MbLXB7HO/DRAdl+yNvLoD4hzYCQM/O+GTkNI3iOc0MPg1ecDx2tjk+/5YN06ruPYPWADBm1WvHVh9faed5p4dCZn+WDASMGDnZcy0q8KExHrvqEgWNbehtB9vHKZOpG5dGL9PlDSSbhlbZ1uw8qc1HhbcH29TgwsiMn/9J71OOag7e6HpstWQRDP27UejkJRx5ynw2cCZcZssU95G+cUAKyAUpf0bzj1g81F93/bb4zAis9tX6pvaqQpPrFAAD49C49Eok86ecs/wjb+i/cRwQtiSOP52pjAwvi6ryq0DghYeoxAQiuFmbsAo5zB87IvbUUWBqSSwvqHIzCygccLB+GVBjFpxnjd+R+jnUQfNYRTjwGQ8eTp5efZ/gKxa89/CO+T710DIRc2WllTP4gc3fOHDx6+Tyn/zzMAuOY5yC09Gg3nh8O+lzqLgYh1+3fHKzxD3b9h8HtcUQG8Nkvq7asdOQB1IVt6vJC2rs3fdqNIgbQb/rCuhSjdD+SfgdBr+KraABep9xf1qLD24J8exwY1ZGDZ9aNdUWk4eZP5TX97Vvr5WRm5MprNiBv3bJQfy9lIu6/s58infZDE4GY8H3u/m81B17+Ncti80Q7GWTH9ESTfrTgjRhmznACEI/m0QdWdmKx2jdo7I58pnmNHRTCo6ErsxY7pjOPhhsP3nLj/128QnAbV8iRI45R+wgzcpC3ESkaqSfNDAkcDr5yhMZnvTASxLItyp5ijNuRazZuo1xzxIffeNFzhPG1wEA58o/xEMfODzbC4RniGHyVst2Bq7OJBzlRi29s27Pmg2nUQ/3G+mAw4Oepfp4/4tAPwIyAXuqi39HJ33X7f+ALSsDr1x78L+6E0FntPPLkDtx0IfIj78GH55WO3IC6oK+Y3MrrPq1uuH0C+R5zvZBuWPy4JfWgVofP/skX2QaU1aAyFxPOL9vX48CojrzUy6BQdcImP+Y5qMwpQq2Xk3Hkcf4sgHNmPzZAJ9zmFxvNstv+Lb3xCR9vc6hfY5OsXlCF2mhYyXrVOui3WwtZ/LxtV3heyLutK+vJldtWlieCoCWZkYN5GloXFK4rgguBjwlsDDfK3IyEx8/MscTGJPECPmZbWvdGs0Yp7puBK6cZFpwB+3L42FHO2uQgUHZbxrRi3I48rsMzsyCKzv60L1oBRfnRMWY4K+G1G1VG5BNo9UlOPvSqlIs2x0yavAr8zUI6Xl6rdtIyvNLq+qkMlaO03t/fdccnmtXb/t923DqgeGd04cXTeR3z0zHCdOQG1qUaqFl42q3ne+2lD6Qq5F4FHld6Q5JOXffkHZYnZlZL8PiWtwV59zgwsiM30opCq/tRV9yzHVjmFKHWy2l05HTYiKNP1vmbUw0fEL/1zMzhdBk3cGl+RXPmps80u4/qddGkaK8SF7WW7Ziv1ppP8DqqrhocBD8LQdDS3COPStj5vRXqzWtSEE+zzchbJdRkALPJaDKjaEwL4dCPvH6UH9egsgCmALG0o6Vb1TucyCB+lhILdeQcvd5oAyPUh8vabd1ixIvd4PVMqsQqMQYPR469aqPYy5bGCC8FKlnhOPQfYTpyM6ZFV9rNr/icLqnox4DXbFpK/NyqUavHeBQN+XOmj7BHZjDu3i4VLyeEyAf5ljIGOXKfcXs/4F+LF979FoKOUQ/VBV98E79eh5AXyhvEzxIj+ABPk3Dkwce4QF45EdQMHQ74+gO3RwOSB4Q4jM2wbGP9J3bbJOY0PhqpgT4nDljChzMfUOZ8EJSO3CCeBjtyNASJzxWqkZQWu5e167Q2NC++9jIfh5IzihGhOXRshjPDotf6WdlW5iB+lhILduRWL+QTI1+kYSYbdcNjHnwGvAgSFLJFKPmBsHT1vjttEIQlpyjD+ewsKlnhOPQfYTpyq4MPbCkfA3QH77SGTsQAuRhGBT3Uf4x+CIeID/2csvEcL0OOW3HfG+H7dWpeTgjeFsG/2qVy5GAwmPRQSV43c+CyHOgL0S8M3mdgY+J1oMw/bgdueL/K7OdniVHr5XJ05HpUWvxIj6Q3lz7wfecAbYUW8zpalEf4U9p0pln/9LYyC+cE5yYMyBbefkHpyA3iaYgjN4fTxvFr67jR2fgb/jgOvPKMfwKvzR8jMTo8Gi8LfbYwSSzYkVtYZuOxHIXfLHz7LR9u8N50yENOW9TqvdIgSzxW9p6tn5eRxeyMy1kyWp1GJSsch/4jTEcusC7WJ1AvzEDZszhg1mCZXcqVBr8dfu2oH4NMh0pU1+Bw/4u/pS7FAJMOPOLQVXPkg3iZN7wt2L6lXXpn5MFeGzEeEffjePlIS+gXbX9BpTEgVv6G6G8ocxBPS4haL5ftjNz5YcgBlAaIn93lLysykmaiXStfwGb0iAUfvu8qz0e6Ut/ePVEEpSM3hHBndeQaXpVGYyQQAU9Xc9IQGe154Zd0ZihDRiReBBAKu/CGXCgWw5HzXrQp+KkxesVAxQzNdx5fR2HIIEsqs83O/+32y7mCUS8dsowBPHcKlaxwHPVCmI7c5cHbTuoj+JhIobZj9RAeMavfQ1AG0t5Pgy4yQ4v8kW8rfy8T6X28nBCYl8K2XXodeeg+CSw6m8ea18h7D6kidkXUW3dc414rB80c5KKvTb79gwfUeTk6cvGmttVHkaCrloZJhoWf3fVt48LqZ+0W+sj3ynNQGaT6Y0M0vnrH662O6cgXGeJpFkeOBuKhmuXSvT9ojhzD7muMvryDxjkRIuqNuvconPkHS11LiLKtzJqPSWChjjzq0G5Y0savM378SV4bMyT+MXFJYnFbQuVebjLlcpOB94+Y/yIZ2kmDdVGI49B/hOnIrQ4+E8ftJsrD1KI4NwaVq7MIXvqC2fR3H7NBopKMXH/tgMf8o4+ScH+Ky4vlQW6czR7Pywkh8kZbeBwojlwMFqoPsXfkgSO/ZBzmRatWXpe2Sn7NDN85f9adX1JfsbKw7DuQpyVErZfL0ZHHHg7yaHrzext1S0N1EK9s62jYtsHoH2jveCw9/u4TN3qeNijAYGBAmfNBUDpyg3iaZbObSV8O2xrCQnyxCq8Xfe5Y9SEHb7iI85DX6Qc4czwHrbKsTCsLjTkNjmqhjrynPblhyZTd4ut/s71HLojyr/4XBcd5mDFhwxzzMZ7K416+ctFpVPLBccgLYTpy1UcznZXNht/eQ93oIU9AAP3BByrgnN+5+WNM4Q8OLWtCl6VvoJX3XOazKJVVL0lTln38zBveFmzf0i69M3IS+HN+6bSNV7wiFLffsBkq6sL5AuB1YNRDXI+VCLyPgfdqsQFrEE9LiFqWy9GRgw+tphqPZo946895JuwYabgHrrbS+ku0mzeciwAPU77Bt8ixjunIFxfiabYZuZrkTR7ONKu2f4Wvmf3crm8pHee1emrk1zn4YXuLYHagjzpYmSgPm1YsHMTPUmLBjrze7GZyQRpecaqZtxEE56sZIRTJdIbLhWduNqWGcQX4piXk3S6Fdh6VrHAc+o8wHXmLMzd/mnoB99XvjEFKa/imPdbfZqUbntrGNFerilp9vv7Apub3b8BAQTNzXCvD7LIcwMu84G3B9vU4EI4cfHGZ3PoA+XR7AlK/WsU3iWG2zV/sD12BhVHndmlex9gUis20A/lZYtR6uTwduWwRnK6cuMWxvwKh2zvYQAzItFKL2rLxChUf4sn6SE4urS86xNMsM3KQ39dFI0BZ41GEi3Z9s+2Y/ruiuNaAhIBR+f4wyzNjMgUj6gU7cqRTHq1SXnPwDrtKmwPb6rs8QjZGXFL362hczZlr2cny5X33hY9YJ45KVjgO/UeYjtzqYG2OcO2vbmF9pSLuzO2g6I/9gV4VPbPwgnuvKucEqTu2gwDkg9l76Bd0alE3UnpbkC+PA+HIQeGQg6k3m9cZsl/hXrcNMv7Nli80zx97gemqgt9jrWwPDz18/thLXBkcyNMSotbL5ejI6byhM5iN02brDaG8Dcg9Pa5X9ttH7v2qcwWS/gYp6nKw4IxNH2O+g8qcD4LSkRvE0xyOvCI68qou+JwpG4l/qnu/fhwUhumag/7dZJSJN5T5Dm3NEvwtYkjbcE4pZ5xYqCMveXkaFBT1ZPVBEWdo0qGlnWn2v/xb1rPmZVmiT1ah/whPBkfe8gn97uVbjhWfs72gZ0YK/WBA8r5k4JsTzelxHwX6iPWVA68+7bqlTWG8jn+k09C5qx/6BxpklFlmVeTjeH7nDc+L7VvlWzvywQS+NCOHHcC1ePQSG6JUk5ZiRt7WTRL69UuHeMtOZaLslpeQ8bgR5aDc5ejIhwIvHDNeYb8Rv+k3O8hX2PuYhVMGrRia7zx2I69rgduLqvd82jAoHblBPJ2YI0c98DrFQmw1Xet9To3K5WU5Miz34Z4wZYDlGcsLisDZKEd3PkOFclR8jgMLdeSxFI7lJuxa1/OVnp/LopVD/NGOYir/AJ6WFSpZ4Tj0H+FJ48hNN2JmozTojbe9xfEWP+qM6UarK5VOWiLlgOVxvp5X12Fw8OV9P/CTXM/QzxRRYH/wCCR4IC/cd6G+VvN5wvC2ID8eB0Z15LFXRn19DV8mhfvglAdtRk1KU6omDbi/jg8JsWznCXLWq5ErPseEWi9PRkdOXjErR2i6ecamT4gxa6TQv6BoN9DRYy/05hMze+pn5N3GZ0NQOnKDeDoxR05Yx8G3ydVScNYWeAOWqP3ByJrH7syRB503gE98lhehuGwsrPkcBxbsyCNueUEZ97+Kl3m83lNvPo5hFHaJhpV1S0c+jJbD0jqdaD1Apb4rDh3gN8dDOUwVFYNOqi/hGM+Xa0DQbjgC3nHLBdSncour6HKr0/gJt8H4Zi6WbXJbJ34G8TsveFuwfUu7jO7IkYdWFyKvlc17t36uef61ozwrBjSonWqo+bkPUyzyZrP36GP8zjbzcj5YvxgsjRG1Xp6Mjhz6q/roGDoK247m8RYS+UE86YTDj9z7H0sfYN2RTzX4CnnMhaB05AbxdIKOHEt9NE5rmv/XL77fGhQ2pOVRWjPi6oI4ryyzIy9s9HI+ADXq+JeeF+rI+biZ5YN7R9hNq3pX1Qb1HMw0f/vLdWZQYUiHK2rnUcvKjtW+Ck8GR94uF7ockG5x9hkLP2sDYJg29JVQE4Wuk3aA5fN6dYqzF64EIb66WXvgNr+oLw/7wxT7j8/Q6gtUzssifLCCiHpZ2LbL6I48BjVlkMEXjqxo/s3WL9oA5RWviEgre4ghVL0QRx33HdbMXN/8Nz58hjeQ50VE6CDqcHI6cuOVg9Toi2v4oaeyouTth6DVTiOL4sNL4bgpk9CFyLfkOTuC0pEbxNOJOfKYYbAjrzuvWfvrO9TJcL0FiPU4dAtjTI342idvk4FhpzNjVcmlXmYZFxbuyBWHLK7Y9/2ocCENbKr6W/wsfERgHeq3SMZ0mlHLyo5D/xGeDI4cIK8+Iy/HxjseI9vynPU5qJ8eC3E9qeNNc+VDa3U+Xm1sfYKzGNTd5YB7yzCSdT8LoynnZ7+ZHq7ccTnL17PlxsNi9C/noeYHGNWR037gloH3BRh2ysr6B17Nqlq4PFCPUrMet8A4ltkxM+frn523Hl7HgFovT0ZHzrrgdg/azFdAMCu/6df3kj/ppVE0FtsQh/qgSuhybQspE4QjrKgEpSM3iKcTv0eOkPe6vFHWHsCubSe1Wgvki9A7JejSB/5ODYl8kK81IDa99fM5DizUkbdKvMqczm6eH/WK1YnYpYt64z3aRX6LNSuaZlSywnHoP8KTwZGTX4bGsztzwpwXnvHmoJfvG/d+QWr1EUuRp916gV9neWC2ybgG0Eo7r9n2zM+lb/jvetdDloRd7xp4YxVpkfqYtwXb1+PAqI4cG1xpsHG951mODbglAN5nqi46oHYkpO9+/jGr4/s1u1+C/lXr5cnoyClnPgVhPLsdhI5xE3RMYkAeDdtIsjRu4KzkAXCWXh3PhaB05IYQ5Ak78mhMHFs6Ghcz7ehwvCtiB8XBEZG/5ufYMBfXU5FhsJagIy7YkZcd92t66ljIDDWfpXdL9DeP3cByJfNeXpYlKlnhOOqN8GRx5ECZeQDmxPFsN+8lGrGfwKEbcT+FoqRrD26y6/DZYcsH98ipa8gboQbQWE7G5klQmad6fiSPIuBjP+AH+fmy5oLgbcH29TgwqiMH/8inbV8NNASVEXXDNTWprykN8agxJhKFvzGj1suT0ZGLVwMHX77XwX/jc+Whh5U6xiwduOrha3gt6tv2EbveZTEMQenIDeLpBB05DIrPEtpOab/bb9ce+DFnFCRrNbZlhEHF4Mw0n/3nbzKvpZTNgh25h6u3X95TL1XL87WDcPDnbbvUrpHiDuJn2aGSEY5D/xGeDI4cKANdhDZrgcHCs91yPqYX0BWD9MePndpPAqPOMHbv97jljZDL0qubU9etah9hMwp9Y75M1HHoMtvD93csCBUvbbuM7sjL9ZZXrDCEQWeah3xnBS5DfaJuIK+wAskOv1978LZy7TgRZaAOJ6MjB3CrBqH4NtggDL5gw1M/ZbsUHS8hSDK5+dc77Bq3h4752Meg8TtyYxyvNV1992V8K9rK7Zc2K7ddoWNLR+OPE4N47geEBpyYIz8+vxprD5ozt7zg0NmG9qdt2KAYTR/j7ncZK1+2caVmA9MI4n66KY7zPKjM+WChjjziVz3o35Cu6sZ6K+o0ww05rIMPWAbxtKxQy8qOpWsKoUvDqPszcuPVQsyAqc/YG2G841WrhapZS+gLliW3PrdzYJ41YhkS5VCXexXOj12/LX74jZftXN3PhMEclOe84G3B9vW46jeiIx+UZwX0eYaW50X3f9OvNbK6qHf5MyF1PRnO0PaQH9xKAG/ICyHq7vH+8uaLWi9n1+fWviy/GbnzbLot2Vo6B4hr+HGfQmyfXkLSgZfw7QDZeQ3gbFZv9l0rT8PbJ2jsjpxOy5StpbZRl4IG8dwPCAwYhyMHtj+zj61W7t3BcPG/Xt/KFnUZYc/PZ3b+lRTDr6diu1OHssS7qRejIy7UkUMGMNJ413DUqSWZmqg3dg5rw1J77SCelhUqWeFYuqbwZHDkseejrDRtXNO87eY/bF58/UVqR9xHjCFfGeQacLtpUJ79CJmWZ3hB/kY0llHlCbrk/r82vuTcBuU3L3jZzMvjwKI5cuSJuOf/5X3fYz1UFfW16HNRxXa/wYy/DnSNHIPbFNgO2hMfJCwEtV6e3I5c7UNZ88NPq5v3bPliNFQPRZLCGT7zL5uuNkEfYf6e91wIWoKldSmVlK3XsPca/fHQIJ77EYo1DkeO0fB/e/P5fNZTdddSuyTQEo+rmclH7v0zuzbK0OisnaGfWxp+UJnzwUIdeQAOB1Ta1OrAdtZ/0vrf3G3XwaD4Czlw7QCelhVqWdmxdE3hyeDIo97UXdyCMkMVG7hCL/oJOvTki9gUOXzGXL6Wx8e28LGeezhDhe6FE2c5VXl7jzxhxlIyHJTnvOBtwXp6HFgsR86BEOvXGvdrntykWXj0NQZWT+9vfsS/CK791e289QAZ0aZsbGf5dVknglovT05HbiH4N93WLNrTfbDECZq1gdrLKGx8oRl92Acfm4r86rw9PhuClmBGHn+gaIrT2PfXZ0w0iOd+hGKNxZHbuWhQLCnvOvJwVW/lT1l44/Iv5GPOHi+5eO+WP2YZeqevlL28aB/p6/He3+PLnA8W6sg12FhtbEthQW46ndq8r3rY84FRx2wAeQ3gaVmhkhWOpWsKTwZHrmVsa29sikRoxu7Ay09JV6DrCBj2ag2d3Aj3sCmDIo/VvF0Hh8a8mDkiHlg/Yyn2f9WOy7SUOSDPecHLZvtWfCyWI4+Br+KWv4VYTbj2V5uVDarjdQS1E4XePv3lff8H84lNueh/WB3rL2++qPXyZHTkQNSHgy7Mqo1/rYD822brvzwgRqV2ilYNhtiK7X+iPoLrPL+iV1U5gxC0BI4cS8Z1J0U8GnZuB7IYNIjnfkRDjMORs0F8Kfntt3y42XP0iR5Z8IBFqbwwQpAR3ruM5Rleb3nFjLzMzOEM+8ubJxbsyDfa7HrdGtUJ2XjlWmVt2/7Sfd/RIz/x1inkNYCnZYVKVjiWrik8ORx56Kt4veDer7p+QzPM6YRyQE9CZyx4B94hbtf153ccYhMd8odc7BiPONabTIPKrMjSsBueshyU53zgbcH29TiwWI6cefpqAxBL5Oj7eKEICFUM2dHesqLq05CxfprhPXa0BfOyvHnvvL+8eaLWy5PWkWNZPeKoCyY36+CUVzXX7b+j6CDbyOO1R7z64WtK20YeIZPIdzYELclmtwI2qB5F4uGbCseJQTz3g8I3jGVG7htNMNJCQ+EjB/gKGu9jGb3h98ZxWO5tGeLZa9xL1PeHXck5M4eyLM7S9IIduYXnbf9feR5YJ9nMJ+IlzSKr7vkTllnqsgj8Tz0qWeGYbUdZniyOXAM3Ginj9+7n9kgnoHKuHAxCUSz9uierr5wNQZGHGc8YMHxlr15MpD5WmcwSEb1708cH5jkvoGznIeLAYjly2I+2jphRq92F1bwHTrK66UFWEaoaH5IBydHDmf+VrkVeizARCB0ELyejIz+Ob2sv6aGcMjYBU+3sD9qA7cKE1vd9/RdrvX2r/DzPYQhamnvkQaxAdDCj6qdx0SCe+wHBAeNw5GFcOJJmOXg/9PnN7sMPMz81rpVlstHCn5cbrWx0+LXfyZnTWKHzIa/Ryh+GxXDk5cUeFYXSRh1AkB3Lra7v52fZoa+uoQMITwZHro93GL/mOP7HO79Q9KFXW5x8Fv0/brnIrtV1g/KswXMoB5yP4/P4zfKjx160MqTXDNXFWldnB6M40qHwtiAPpV0W0ZEjv3VYmZA8YE8kU82mseP5uv23MT/UD+hd6RAVu2J08c5v+RL7v+sp60RQ6+XJ6MjFu/gPG1/rwVWP/L1zamRtogEVqJUJ9CA2yEW+ylPymAtBS+DIRa1eoQIG+9+na2OhQTz3I4Q2DkcOKH9raDSWGRuk4X28R19/lXmWtu0jJEcHxMycy+zOq/I9vqz5QgZncF2DcA7KYnko2+sT4ertX+F5/QakVlrEVtSOHIOSPl6WJSpZ4Th0AeHJ4MjFq3QGM20qAgZ9+l/UJcLdR/bbuXgBjFaxBuZZAXnLCGID5UrJxXSrzFRJ7cxU5cr44IUdg/KcF1g/hW27LKYj9zxt9sw4JgaY9fG3FlsP7Vbdyi2FGLK4g69/M8KjUYvxHH3oIHg4aR052sYGVKGvpX6G+hG0Yg/RFq6DIL4UhvmgbZVPySPKmQVBS7PZrWJaZMrF46qDjYkG8dyPENo4HDl3IzJ/zKa1HA5Dg40mZ229uHn+2AvesCB1OlB9HM4cm4Rwn73Oh0qPkboZM5YXsxgvs+ZlEBbsyK28NdvgyL2NDVGHNhKO/E/KfSAgBjXjBJcmeR+1euwNxnBE+QyD8lF+lA3SsGw5QFbt+QqXiyMPXshPH09KX83NnlSz0AnqCfSi1Ruc8LldNltE/+CrS0eoH/JH29II6jYW5P+erZfIxhBvlFVAL4YRlI3ZKWdSuB5vjsNs13keydGVc1V3yWLxHPkwSLe1mXbP0cdK3lG/Xup95hz7FZiH8664gY8/+ZMlVVmDwGsZnrz3yAHxrLhm5jrGe1Mg7t7bpi0h/vWHrinXot505NB9l8dcCFoSR463fmE3KV8Ag5fD2PF5267gkmykjwuDeO5HKNa4ZuRAaWTMNOBI1ukjEHhzFTa1RSMXiskt2PDf0DH3HH6c99mLkXHeVQbirROJMufCgh254ct7/s7P7K1C5BvDE8zclU/w28vLOBBlsHNsPEf8x7Kt878QsD3jbWOYKUUnpjPvlZX40THC5eDIwQcHZ+AFfEG3fSBDXu0c7LLmC4NMDeBIoA/FsBWa4QwZ15y64QOc5YzyVEbIADxwZh5lW9rW53arCPtTZkNUSb2/Af1p99FHVBYHd+KZfLuM+8s7DnFe1N+vXzJHbvXVhr81HOTjK2gkrx8r7HUmzciwQBywO2fd9QVvM9PjGMTE7H+E+td6ebI6cvEr9KfDz6ktIAWPkFqZXPXg2lZviwykT3V+gxC0JJvdgiE9SqFRnjYDtLOzSQJCA8YzIxdo7HisBqLh4Ix6VfPerV/il3BE1txudHwFUnH37Dje++KjzWk3nc9rJU/IFW8EaneDx2MQ/fz0Y6GOHHlgaQgsg+92xO88G0Ud+HpW4y+MZlw/TlBGgN9nxEtG7n5ub7P9mT3NlkO76SgXAugM8sMSWsg+6selNpavsOVH4fJw5MZD8BbGKBwB5aA0vnfaiLoAXal0DnG8CAl6Vga6rN8I9iFkgb4E+Vta5IGNXUX5WKYR93J42Z7G53jhyOwa1sXAARl1ZkCZNbz8uE58L6EjR5nR5w1vv+WDHOyX+hpFWETO33Awo8dct+LDHZEfbNXoj6WFDuK6k9GRi9cW9W/Qoa8/pHvkYdP5F/LHbQ4cmD5e9fD1ysv7TY9OVfkNQtCSbHajk/FKqhEtRKcpx+NDzetsiHPH5sjNyBRHfpOug7Fhg2G519LRmY4ce7l0sGhoOcNjbZxK8CYfYzv95g9TtizL68DQFOJUX24MPmbDYjjy/+m+/yRFrXhsqR2YnHfP5XZdPE9sMnEdGCvIq8MMHp5lJ1kHqp3JiRJrZnnxU5twZNR1lTdIVvpN4XJy5MWJG9CudKaYIW/U4KklyVw6EXHpDN7Mxv5g+VFHvG/MiVI2QizJow1C7mua5944qnIsf2lhG8YMCR8Z4SNe/lgkXhZDHrzPzgmWozDiwFI5cgB156qQ9XvwjDfnPXDEl9m9stD1ssmY4bEiB8zMe77CBTncpE21g8qrwfMZpiMnTH/q9Dn1AA1gwGqVbIfsIuXh98v7y+tH0PgdubVh3MdhAxrDugfgx2PGIJ77EeeOw5FLSQ1olL7zQwan+iMl2MwWn2UWxYGF7HU6dr/Y7DnySPOvbsYnHjUiZ54sC4YNRmn8jhzhih2X6sSKR5LzGYR37NfXjSS/RQCcSbRBT8fi7GyB5BuIrn7kR2157gDqulJuTGvrvhwcOSB9c94iDX3ejw+8+hs5kT79KLMSA79yxrx0Hes2Yv3ifDgyHntfw6CK73T3otXaXr63vQbKM82Zmz9NJ1jywG2YqoxZgXJQT+dXvCydIyfPKJvHbfxtt7b3zHvrLmHoGKHk8cLvXuLKYC37UQYyUR6uOxkdeY26HwSueuj/Z1xK7pQ5ZG8GHPGY4PS8KMvCfnnMhaCxO3J0EyrEesxU5FjmsytvKRC8jGdGrry5bOKOVZ0Pv8XvYfhXNZ/FJwvZ1+ryFQ8HTqWgJsiZcxaIGbhdr5mM5W+Dg/gqz1xYsCO38lZv+1PyAgrlLBTpho/+9CryqOs9jwE8LSaKzBG3Mq985Fry0sflAshkZ04BL3WoN6iojTXAKnJzHiTLZebIMRuErIM3DJ5show6Utb2p+gGgmoQhWRsCgoHjDxHcSJAlIPrYoWHMva0M2//914I/kDP3aAaFQ4scuVDmBXFZjktLY8kX5zvbRJxYMkcuYErCOX2mg+ErE3effsnyi072hOvMIJ6B7scy0xz5LVXmvfd+cUi+1HqX+vlyejI+/U0ZM962fHWQ7uMS9hrfDTL28AALfTmaL788+/pfMjBro0wBpVzIWgJl9bBHJavTNHwtRfO0lXhcWIQz/0IxRqPIzeYgYkyYGAKX0zzc6o8L96JTxai0b3x2f6uBBVfMbLDV46QlzqzOy6Gw43hQh05sHLHV6ScoZk1Id2Gc/gJTjQMPuo5qrFeEJxXAOV+7cG1lBu4GsTuvMkzoYxi5u+yQbxHVsZP/I5w2Thy54VL6RiwUg42kFy3pln/9I4io3Ad4ThIpjT4DgHrRHuAOlVyHFBeP9CuXFIv76tu5YL4+t/e0yqnBbVB9STeK+ZmL7NNutbicOyez6wIPlGmx4GlcuQqr9UNOXX7DbwY/7hlh2fqQawy6+8HHjKdTxDNNE++9Nvm7bedr3ZEvaqyBqEu+2R05LWMxLfD/Bt08lcvP0PdK+Km7UFEcgfhS6C4RoN/u5b28fhBwiAELYEj9xm5nYvGkRG3eHQYNN44UfE6G0KxxuHINRP0c1lOHAOYpctYxO+K45OFf+UlgvzrUNHyRm1UfK598nYpADpgyBizEudjNizYkVseZ2z6WFFQGEnFWmMZ9+a+/+g6uy6u17VjR5Rns2XIBkutciiL9+gj6vy1B3/YI5Mol2VX6ai3ZLm8HDn6NR05eDO9gxN/5+Y/qhT1GJ1Iq2qtzuEjKsqrnY3o9tvw+lEGlEM44chD18I5Q85l4GAULLWhdJVfHfT8EIKH/vKOA89VGHFg6Ry56gmZx6oTVuKKE7Bj3LJ78TW9s6KVu+osUppm6Xoy5rRbPmLXDh/IlPKtzierIyeqSSnS4cT/m1v/kCKmmF3WPK6cOeg9W/HmTs8Pthu2ysK6nNkQtCSOXA2n80u8Sps0xNOY7pEPQWzOUScMI4QO9IHmop1/6aWWNq/I+bMfQjmuPwBnbvnRmcfgqe3QzBc88/4ljuOe8eC6Bs3lyMm7ldE6cJDlxwOFNJQ2KmUnxopE8Daisi4EqGc9mMIOe/IWfA0hP9X/BEX9WpKMJJfQiyKjkJvzE+csB0fO9jR9Y7xHl1eVd4HPRXiPAvWAdYExRN3QD7CK1xrHEwX4gn4esJlm3WRcFQB4IOw6+ogmGtxoJF7qug4E+VXYtsvSOfJhkDzPbc6+83/hqkOpL3UffVZ9gEkR2p/dRx5tTr/5Qq+P+jgdO/NDO/tkAfVmOSfvPfKYjEFGbX1WNRfed6XV3AZHIW8LQ85tZMYnt5CpdIh5ejgMQenIDeJpMo6ctxhwq4F5WWPCiOAzgzz+AF9YQQWIjUE9JOcZG3bgLPGSfioUP9NoeRjKLJ0G12Y72OG6Ubc7FurIxefq5oEjTzg3IMXCUDKVf46xfBiEovR98lhslLayzhYDFwyIIbEyMh5KUbNWTri+PpaMJJfQi5BRkRXT2nOWgyMvztcHj7pltqI57dYL9H6EIQS9wbum8SwtNv1c/YtrKMurH/577uZlfAG46qEfcvC2/dAvrA21CtPqI9rP25DHx9S/YVBRt1Hk623Bcz0OoOy5aWkcOaBXuq7RkzFsE9W5lUNNIY/X6czxbLoGVFY37sNR/TTYQn1bvTwpHbnzDMSncWlrLP27j91oHLZ1F1XHJvtth/a5XVad40kj2evhE52gdOQG8TQZR06HBiPoecVsBs4cCoHRGl+mAbKGp8v2zlc6YnUM53TNwVt5HWXso0UqGAYMyBOPBuFZUTO6MjiD6xqEc3i9t1tpOwtjBrPhqR12JvJRXs6SkR2TYYQNjQmvo3HQzHycCD4pT9b3evLy5ozuCQ6jUo+2QpKzooUkI8kl2rKUHXJjWnvOcnDkXF0hH60e41Wp2IswCvFdYybM/tkxqV/IJ0DMjgM2v5US+fO+Jdq/HXQigt3z7Duo2yjy9bagDDwOTIsjlxOPmfTq5n13fp4b4CiSov7qm/pj8sBvIAvhzE+79UMuC/XXWEFBWsgIeZ+MjpyywOQIceMZK6xcTTJbg6/wQYYhTlLPY0kzzd889o/Kx+us0OO+cjkXgtKRG8TTZBw5UDqGzwSoFBiNuYxgGK8/8GNTCOeJmmFxOEj7r9khUnSMjvj1B69nfrx3ZsqFt2uxLJaDuAzwQh258lvjhlv5WPEtjxF1uuyB73teiyO7URC8w0C/e9Mn+RjcufdczrYchtWGy/f+wOrQ3lMfNJM/aR05eKGe6akJ3qe+YXWz/9XqU6IjUkh1kHxPmKCClt2gXdpRIIprj48179z8CcoX/XBQnXvgbcH29TgwLY78FLMdMVngoNt4+9z9/v5v1ld9FEQJlbRYhcKTMY96vbx+G85hyPxRb4Yn6z1ytTuBY6yoGv/vvfuL0mP9JzHEn0gwuuC+/+j5WH6WR9S95FuVNQhB6cgNIbhJOPLIg7MZvCwmlvW4ZAlg45DOLfccoRxu7BQ6r0gvfM80l9z/1zRG6MiUtzl1loWZOcozh74Yjhz5Qy6ut9JT/rF8PYGHdrzhqZ+WPAjWdYzwMgq/MGaQMUbNuL/r9ZoVNkjBO+LBO+oQf1knVYp0sjpyAvy4o8CxPhShGz5DCTJ0SJytLra6fOIUeTJks0WeHuoEa0txi0MNgqEfI8jX24LtW9plihw5V6Is9GVx8mj1wgbDkAHqTJhCSwq9csdv+AgN8oM94XvwaT80eGM5lvfJ6MgB6grqACcOmVj4t4/+owTnpMEjIoIHfuvC80Ie9Z4TD+dCUDpyg3iarCPXUrPFnRcAS+DlGApihvL6A5uoFL1kvNp/KocZpPgVIR5lYzkb5cwxMwf/sQqwcEdu6aZwp916vp+tcnuYYCAGEeJd8doX0CuLcQHOOGQqWSrk7wjnAPjEO/tZB5c7/rZGT3TyOnKXrcsUhgg8R7sPIzlW1z9e44ocaQslNlYLlMfsa6rvVRmOvv4y5RsDkznhbcH29TgwLY4c0FfhzjU4fxjMmnOHbeAtB9TblLnIpW4OlwkCfC6VfckcFe1V1Y+Q78noyGOzspw4BjiraQsPv/FikZv+tHGEAPaHsP52TS2HOKaN9nJmQ1A6coN4mpAjZ+O3DaZj63i8n218eWeBU+cb4Kwj4XOQcth4pAcqUfW8AMjDi3Z/g3mj83F2jnJ8tLcojtx53v3CL3k+eQoeCrVl4NE6nB+8jBMxQKJMUWfwb+lY7dB9rbmBc+nI+6rEeLVce7I68phBcOXH9ADv04dsJKu59UqkRyslz5BrXL9YhNUB3RqhI/cBGVpPA4necnEbEzPW5bG0rn025A0bEcmj6T76rMUv3vUNk4xV2OsuqtqtTSRde9Ccudkm2CI6MdQb5VidT0ZH3mNDMDM3GWMlFCom/Yo/ThaPw0v3fa95K2w/6u+rpYjLZqk/9ZfXj6B05AbxNMHNbt6pIj+mmUJw48QNUBBvbCs3zuHM3PgJpVA8jFWkw2gxwtE3lQ6G1zs3OvRCHXl7vKb5yt6/U7leZsuHEw9m6JxQh8WQ3zBIroPSJYf+9H7g+lU7zEAZ72H0B9HJ68hXuEFH3FeMQk49jT8LuZK0j+m0ez5Gun4YWR49+Xme7T3zaFOEBv4+wzcmxuauOeFtwfYt7TJNM3K1DeII4/Ow6K/gF5vh4MzLZsCQh8lB7YiWkVxiwMVldtQ1Z+Tkk/baHTI2Bj7x0tPGWTtg7KVWvpi5yx7DFnu9La7BQSujuRCUjtwQQpuEIx8Fmr2+3xoYy+LtrBrvUtYMQ0YJHY1kQc+7rRHaORfv/pbyg8JwdI4vl2EXN353kHRNGORhjhwdGvme/ZMvkYdeQ654yZrHM9xQFLcOwmDi8Q182lX5T49+jOJwT15H3jpxfPQEzVsehzQKXaCOmhKE+xy8ajMeUjF9jsqo9JEAf1MvAn/43LJecuP1dblr8O390NPYvqVdpmtpfRhQlyt/oQF9sSEgtyuaXbZygyy5u7+qP2wAVmNwedu2cU17beccecUrUG5Rwvlihc9sF/XBz8O3xUEhxVaeHvMNypAf616XdQIISkduiEaYVkcuwHjEYySK93x/GOQ6E6pTH8Og4hlSvOUJeTBPC/H8Lk7AOa2R1X322K40lyOnQbO8ol3xVigab88TcYRxjJ+Q67W/2sw6yCjqWoCGE6NUi3NFokcGk0E68jkQvJhR+9vHbyy6U/qPHVADvPGPvPYS+xm+FX7Xswv/jOwwoByUd9dze5u7Du1rth3a09z57C7xY4AuijXNNguvhmt+dbv00+rGpU/UNUJvh0FxoCuOnINw4xv1XHvgNuetiIB/oj8DkA/TzZnjCRTWGasyeIPetnZTKM8pJrREOufIeYvTJj2yU+3MOWTGd37g3PUrmndv+nRz+JjeoBe2k3KQwArhN7zWmvn0lTdfBKUjN4inKXXk4I0bwyz0Tod0KBeU5x23XEBnHrMLzc41sobCSIe8Lmas8JUjvRJQdcYLM3gdfscfXVCNqoc5ckvHyBS7wO0YnTtIS0vq2JEXCVkbztj8GeXHesqps24sy/LmiNflMEGkI58D5GGNDSo/xDeHte0MnXOdDP0zimXZ+Oa15DE+9JSBASP6zcbV/HSpCH3F+gx1MpgX3wjP2PQp6aXpp/KKwab1SbzXnHm7HDwOdMWREy4fxK/ff1tpwui/PcQknYGfL9r1LV4PGcUtqLhGZ4HaPDrnyDGI434ls28b/q14jVUoAHpgNvDUDR/gB1JU53DjrkeGWhYYXEadB5U5HwSlIzeIp+l05FAihlYmR4BWJpfYqUw6xswcL24IxWE/o+a0o+NYGoNRff61F/XJwhvP41e7QO5uFcZFTnM5ckD33cwR26gcO9Kx6zeyqUl5S8UR3XZoN+sQG28ALK1rYGDHGLj0yWMSSEc+O+gcTY8uxQCubnBv/3DiCGH433XHx8h3tK3qMT6IR9Mv4xH9R33oXDkd8oTBrngTz4jjQPzj1tOp6yBvlzlm5MgT+Vm+Pe0b5xi64sj5lkfnOTZXYdk3ZCFW8YQG4uzBLh+PW4jHDYsj7yG/voTdvEcOXjR4aycaam9MXhT/8t7vSl4SipHHjRiU9KZZs+0r0kPXpYUgKB25QTxNpyOnk/ONb7HEx3J9Bqxl9jXNO276cLPrsO6Zh9Kww1F5VBfXI0YOv3a0ee+WP7YZ+T+UNPxONxsjbv4dMiPn0pIGFBpYuCGoCduAIzPjRSZAPF1439W6X09nbmVYHePeOTeQDJDJUiMd+ezA7mXo6P6X413mg/sN2vyuf9ljvLcz2xiwjRM0vhYWp+v9Bzq35+iBovdFPYN/T8AqA2djptttnqh7dextEnGgK44cYP0w67T+Fs4KKyfgUX0VUV9Sd2EpNfYd4IMz3+SeApmc0IH+sHuOHA5XIQY8avN2iV31WLOtfaolVndqwmCRkrL0O5+7X04ccFkvBEHpyA3RINPoyCmnmJVziceUCq9dpCIZoFQwiPY7Pj+I3bbk3RUriA4aCZFuf468frjZ+NR9fp5d4w6c5/isBDSXIydf5M2Ucp0NNCwdy5Hs5C5CdmyO6tsi4lYAlvpPv+WDZliRP+qKPKDgUPR05FM/Ized/PB9fyadAcNs8zD/OEDbSwc++8/fNp5lDGXMUI+lgBtk008OiI1nhBfhDWdg1BlnIMZJEcXjktr0hpfe6LFJrkRUbcH29TjQGUcOvhnGAAvts8LqqwF5kYkDdgFRDfg93fo60vufWDjeoXdwad34YHtjkAPbxEFd+9v77vwSv+NeBjCUhxPirLrSIaN/bbZRAybUFXbu+DLng6B05AbxNK2b3WDwNAKMr5aVzuezAs4yfKaBJXO8S5lE5XLQMZuxYujE31/3sFW2fhrqyOFwce/RjsNA/++P3eBXg1yW1UBBpBH/XrwYgbMcy4uDFYx+p0c/0pHPDrTb9mcfML3x/RjQoaJnco4Avj5GfgkZw55ncMcGlak+4v2I5a5p3oHbQMfivr70H9BhbOqaMf08UF2HZVaF1FmE+C3K8XK74sjbell7xMAZ7WN1e8u6D7BvUjbelqLaNqKtFfqR4lVaG3bQkZvDjdsPkA/aXvyu4uuejxx72bjw+rl9a3Vf6RFiPxJu67SrQ6rvQhCUjtwgnqb0HrmXQR7R8DhGPOBLh4Bm6quas7d8oTl87KhzDGrrIqXCAlCdBrJjRVpn7sFcjpwzE+OhhODDjCQ2P2GHcksqr+ed5YTK5SdYcS3qaqPefjlMEunIZ8fZW75EfeHLicCw/ekJadxm+OEf3hoCz4X/pYH01Jw4btvUztzi331snfg0Cr7bIHR2plm1HbuMwbdkLj1t68L29TjQFUdOvi2ELLjXBfx7PwbQj3HLLnguwqqolVsrLxy3pyod1D1HbjJZZ468yARpK0zv/7idMFn9eutqCKfussAeJq3qqH7lYzYDypwPgpbGkdsMK0Z7dDwIKRQp/zgRZagBWgXlUpsvbUTadM7Ih4C8gxfFIw0zcyxbD67H4LrNRnM6cqaHHGJQcY7FP8A3F0mdpcyFLM6BBNiwuJzATPMjOnPkoXuS0S7M0/LnsSt/b7kOP1+o0oeg/9yoW5R73rYrjLvXxTvXFHurAxqXI7/7ub3Vde21BGRh4YJgeaPd+neRI64+EnXwdrE+FAYJv9XLr5KJdKvEmT7DDZnMv3akpfzJ4YwffzyYJZ/k1wey9f1O7HKP92hTHv48sWRjeVVxoDOOfAjQXm+zttMtO8kGIqHrQsTlo6V2pcU8IH6jHjgtuiPHNXNA+mbxKl/5Aei3ZtoBrX7qt9i/wXM24iMxygO3Vt7zky/qCQ0jVlHVLkQ9CrIf8Ngv7DFvWaCfWYi8FgNB43fkVhGMPiRUGQZtbnKBjRuV4cDyL0fkAOJuqNi4hi468jJAAk+sh9KgiFCe+vvDveHg+g2iuRw5+eCxrwhgCRPHWHY0Z779mZCpyuNX/Kj1mJn38oFkvgLSl+lZr5tsFsf75+ZAYm+AOzDqkfNFfYIscB148Q4ZcpoNkRfliDwBrC4wjrxXcRNP8AeiEfMRd9C4HDl0MvLCfV0u7eHYZBLpC4LVXzy1IK9A5M/+6n0HszZzYjBI79z8MePQBzggNqXPTsKoW3TtkxigKS894aB2izImizV8trw2vuHQg/TbTHPG5j8y3tUG+hCJ5FTq4nFguThyLSWvaN5264ea3c8/oTaFbLxtS3vzT6z0QX4+4iW1sl1sRx7yng3gP2wB8gzbKF12/UMIJ2tOOnhhGyPuDp32x4D9EnwqJ+rkQY/zNsJxyOeCe7+qeg0qe4EIGrsjR4XCuEsgBq9QpI0VzicbkoMHNY6MiX5nmqGLjpyGmLBjrxuV1+qHYzrz114h76FsbccbjeZy5JCBHs0ImIyxmYPnncM3uB05pg8ISLWNBwvq4hkHa56Ib5v/q5svaOuEsnnv3PKmAfUBGPTK21H61P4WvNWyGoTjZqIG7ppnms5Zub16YxVqgdD+R1cFjcuR46UpzCMGF3SqrWFivgsA87T8YKSoN853QSXfmMGEMaSzkkhcPuC4kop3of/bnfoGPetv12lmj7y9rSYJ4+uCn11pPKtdwbuqUc08eWxt/PA1koNdd6rv45AMlU/EgeXiyLX5VHV6281/2Ow6qs20sWoh8oYGSWj8057S/r7kM3Kiqo/H5ZNUNmfibrOKbbE49Rx9zY5xi2H90zusKrqN1LM73Qf1/Is/Br3Po2ku3fsD2S72H8sbZdCGYQDd8nWiCFqCpXVz5Nyl54KC4Bi2Qh0ninOJspyHelQUfHXSkYOXUg+rpxvZmkc4c1JRPEQrgzuEhjlyxjGL3mjnoGzIO5yw8XP+vf9JGbHAGd1NLYW3fCB8w2d4ew7v13IU6ol8WCe1GwcOeOwNxxYn2J7ikZ2RfA1vH/EvPuN6/lbStbQevIv6Ddk4HXk7Iy91NFmU/MHrAlBmK1gytuNB/ZQyx3k3fkBpKH/j+5t/ef1o23aQRy0SN2403Bu9fWIQQh1ZHP4XDNTTQmzGA8c9ztz+IFRVZvxRNNdtuway6mlfjwPLxZFHnaLf4f3ge45qZo6eC9FQPPYHzovuy+J84Io/gMboyGteB0D2H3qHuLeXhwD12pxq2R8A3cRtE1zLc1c0n7v/W2UpHdTWFzHVE7FiExjM+O0Y9C+vVzUIpw1D3SteTwRBSzQjx3vCISRUJAyxxVExCGuMQAOp8TwOPmDoXag89nO76Mjj3eT6VCHkaengK2DnYKcklFHOe4aGSSo3uI79NJcjL3GUYzKmM7eQt1N8pIvf/uJBGTaW6/oez6HG6DUIPIq3GX4b+vSbP+wdTfqistRByBcGEZamujq8bYfC8wtwZhod3vJBfOWO/5W8gO1WboZKfONy5HgLlM63PPB4n/GDa+kYPb4QqJ2UP47JJ3/zMl0u8Tv6LfpveXSrlku0YysofUYX5ZDfqiw75pefPP9JQYZ+hemnf3PA27ZnnIa4D0z45T7K3a6vZNUvt+XjyDFztHZz3UPae7d+oXnhd69Uy+htk7d9Gf1DMmPcabEdeeQ1G+B3oi7RNgGmof3dcQNaaTmX/eKSnd9oDrz8lHEfT2RI11Wfuu6qX23HrjkoJ858Cz81H1oFi3JPFEFLMyN3hunMUbnjKjVe8NlRlIlG87QoW6EE3c0ZufHOUSQea/CZms92emByx+sURTBUpoGDq3gczenIUZ4Z5FPNgSP+lhtgsCVP8egKa8f4njE6gmY9KlyqD37aTqDOYuSdBF8TgkOonbPaDPUyWEcMfugwOOMbrZOoXqiTbxzrT7Nj7FhuDbuMPA5bjsfnyLfj7XcYdJZZgsHl2+a1EKCeQsmzlh2OUXb5HWkraOCwsuJ71U0g8TpgI5fP/leesjysbSy/yDuMl5ZsJZNJgjbJ6nfaTfiefhjm11UXxKmrQTP8loBk4LwXmYQMJddl48gNmrV6PZFm7c8nY2yWCtlE3w2ZkSxs+0draBbfkcf5gxG3g1im2QXqX8yMrU6lbDhwsx148yDe5hcrNBycspIC0xTtNQAgbgCCE79NMrPypP8a/BZdQR29bMpzAQhaAkf+uo/GrRIQHo2sz3jocFC5McJ3msKZq0w3JBCoHSuuc7vqyOvXmqqOckBSUP/MpBv/i3fiW7mxJDa4jv001JGjHbHa4ue0SuvyQdzL11vffGRrI/bi1K0TFKdQCPyJR1yBzvW1B3/I98ujTOSLjzWwXDhzdFQuWTl/LqO58FbIDtdXHUvHuGcMeX2TTgscYOd64dAitfzG5cjxJqi3hny9znWeym8BYD3dobF/auBLOaLf+nkhL+Dce/QmK1IRgbeTp6O9KBOTa+gD+fU60A7Y7L7OdxKAHGl0bWBxzZN6NameqGADezurRtRXi523zWwAZBWrfdG+HgeWiyNXPVEvhDEpQjoePfxCc9T3v9CZV7JSGNT2k6WekcuZKk/4IZYFvXZnjg2bF953ZfO3v1zXHHjlmYpzxVq0j83GKfEb/vCeuf392i+ukz6t12SCA1b0XYPSnZfoEy7nE0XQ+B25VRKft1ttRmuFAa+zW7XjcnaGlduuoDEbK3b8P02gMtbaMesdzo0U6hCN3kVHrk4g0KFDUcx5h9LGeVQeUyQo0CVcZjfin+E0pyOvylC6EGX2ylnn8PWPVnb/QKKww4h3KU+s4/htw1Pb6GTfufmP5Mzh7Cxv1I8DR5QVfM0BDTDcmNv10BEYqO88ro6NMtuywZN4DsMVNC5HvvfIwWbFjkvZb1Zav8E16DtYJcBu+qLnJwj0ReSDEP2Red5zWXPm5o8bj5BrDHzX6J3jJq+tz+6r5OFUyUI0Y7ObT/BafRvA8oBO2nHc4poGsO2NP7Q/5MFq+EwL8XagiRS1Pb6KplndSeDIUS/EWT+1Iwd9XteztnyRzlzNXw/FQ2agtp8vtiPv1+d+wPdc8LOr+ZVHzLRxq27903c12w7tq9oV1PJIQnpbGY97/exP+5NdZwM8yOCiXX8tO1JPVn01TTYJM/NWdrFSvRAELcGMfPIUggO/JX5cWkcd+RAEr6qvgYq1srl41zdabbQQJrkoqS+Txs9zOvK+8vrRyipg15ox4MdavBAYy1IYOTEqx0YRt1C/qvMghs647/DjnOnjufU1O65o/rsff4wdpoc/lFt1sPgNzgZOEm9dwq5UvDPci3Jq9UDl6U+EJAuveuTvSx0jb+oHyu1LCzlAl6aVos3JM40Q+F/Dt1mJ2naSGHrbbe2Tt/HaaQfqJSOLdlnV7Kk+PlRTqaPrKh9FC6ONPBDHYAWbME1OcBx9WfRRd5bW5wIGdnTm9SNZRqy7C6A4TANsLAcEoVveN6JPRBrii0U1LyTGwStW2fwHtycDCafaj/rd6xgnW7jnhV8277vzi6ZH0AXxHvWqZTUOBKUjL2nL1JFjxoklHizt2HFs5sAz3t99Qq9RpXHy+paZph3GctLCHLl3TuMjZsu6/t9xMPH8Mb20JjpJO0r2jXD821J9HOdiAuWTKMsiHLwIu763/stefmJwu8W3HNrdPHD4gJZP7SScVzqzUxlX4I//pAAyAoysQJWpYyypwZCHbGp51bIK/UPYBUfOpVQuT8JRrWiuOXirycIdmhHbgOShB6vvbvvJVMPaQbMktclndv4V+We9WJe2riJVEDO7cgsLt3W8Xanflgb5zU3Lw5EDkB9WsUq/cR0geVroCfojVwarTZZtn4k+ovhiUN12Eettz4qcV4/6cbWkboT0OAeElbu33fxBt6ta8VR9gIXPuIchKB15SVuujlyGpfBsM3I5UxihNXxZB+qqezyVklbVXwxHXq6zstvlJz0a174C0ijKZScCIcEQx/jTDyPz3yIP9ZMGBsXpFEuDHPX5yshbadWonJEoF3mYfPxHHMdAQMf43KUb5aq+rDvDNl26prALjpywNsPtqbff8sHyidqWXEbVPVJsCIs2piymGLoHrPbAMet47EW2sKoJHXEyJUO7Ix3n4HzW065Hn4o42voq/zzw7LRMZuTsx6g3BkHfZM34/YZ+MqHBwmBQXV8T8qrbIOKLRWpHI4vIFqBNHUjDb8dRnOMBTqKJVBpWbnCrS20e/dxXZsC/T6D65bXYCEpHXtKWpyMvmypQR84coGT2G45xL91GxvpkYSg5dLa37gt15HEuHYJ1Yr2EZQ1nezzPBhVftzKef/133l+sfHpmhG1HkwllxAkpgYp6DnrrAiojcgsYQ1ltUnt5iThVPzILBz6cAL3QvVYbmWOmRtlY/fpkFfJA2BVHTt6tjZAGqsTHPyW0H2DrMKut6zztoNE1XrHHBLPL7zz+T16pXt1hEsgjeAQP18F4t+2rtr3yobXSq1lpuSytqw+z3qb3n/1nOHOXm8uQAf5YMu5Nc3JhMoq+oLjkVvKy+KLQLE3ApjEUWwDqay8ckXv7r1c0zzRPvPJb1hF8xuriW9b/O/Irvv1+OG5hen3GiaB05CVtuc7IzXlzBGxKVz0Lqp3s+F3OfO2Temd268Rb57hQRx7X8BjvD7BrtZxp/IA3DDCMjzM2fYwfT/G+0zoM3LPHjA9kna3wGAyCyrm6GCGT4hyEdi1y8Zx0nkdB7flan1AeKivO4zH4aY41+198urlo1zeb02/+kPEfBg3y9QGT17uWlXRNYRccefAPw3TgpWckB/xxgURUh3ppCg0Z69irC9OI4oT9vi0M8RmbPsHaoD76a7XzSra9YoazsreyraNtDai7DQyufiieS5+NlsuMXM4M8qNjs7SLd36LogtJUXzsMzYjf8Zm5Ogrdg3sDnUkdKyWo8UXi9jfCzNGtCG9hHZlmv0JJ08bAFhdDrz6NAeovD2JTdNms8QrbJcdc4Jicdgzg957cby8FhtB6chL2vLd7EY+vb4ysqovd97670jH94RDgUFQYtBCHLmcml/jHRiGLvLBOXGPkkbVeMIrUfk6xAEUPNUjaTpcd7o9Tp6n4NjSa8duYDzID2qDraC2RiKkrX/qp81H77vSZWIjcHRgG5SgLnpCQvXi7mzUt5KVZK+wS44cLxQKKgMciBayQlvA+tl/fOVMu9Rl1KcdqJvaD3opvjFowb1cND0QdZOxlz7pB7MHOy73a5GH5eeDZuyZ8FNmoWVyjxx1R52pJ5Ij5IknSmo5UXrmzDEjP5XfToj+4HlAdlUa4otBKD5YKHH7Q51lW4pKuzIOmuHXG7FaiY1srB/6NidG51oIXcE9ceMVOgNADv5IJY7xW5HTmBCUjrykLePNbsYvlQr8el3Ju6E1YlK+6/bfoYoWrV/ojNzy5/0iV3C/toV40fP+MoKR9q47PtV857EbG3wzmqzYn3gFiVgb3EazUXHUEXfSbAGbWqrU9lT+hve/X2LGCV/xAm+U3Y3is9SVxtz4vwlx+w07mFkX+93PU90UdsGRy3B9gJ9hjIEN5BLtgD+aucgQ4imAqG+0+bRD7eZ6TSN9XnPBvVexPlHHMhDkdE3pSMPg9/dvgIygt5Yf641d6yeJI8dAHbNT1NvA22WIm0Pj2//Qr4ogZpotz+1x56fzi8y8TyDPiC8G1bPxmKCQ6sbxgVrz5uv0AVc+dF3zni1f1MQCdcTbKo0fToLCRhl42zL4pf307zbgd6QtwXsSgtKRl7Tle4+cCobZt40iZWj0W9SjdCRT0tNuvaDZd/iRHj1fiCPXkmWl8FZG6QA+yOA5MKBYYvfzYuAR137k3v/I5X9+A9j73dwkx3LceYMu7MsPTunJl37dXHvgx9xZ//abL5Qco97gDXzG8prVo5ULXlITs7yog0Ke68cIuzIjx6yzlaX3i5AZHZso3i1d6u5ymmaw7axvqH3EN9Msrrd79dkBO4wBjQTQ8KUirDN0m8b+PMpvblomS+uQm4Oz1CI/+93S8L33cOaQG2wsfgsdCR1TXNdFfFEI5frsG/e5HzjyBFdb7np2p00SNvAx2JU7vsLbKcFzOGK2pddFaR53feEA0OqsWwSISw4B1g15jhFBC3bkie4jOg4Vb/05/NKPnqeVrWoftYHC4jzDRiiyHr8ZJ1BWbIrj8rUdv2fr55sr9v1dc+PTO2ymuN84tNlh3EOnwTCC/WVkjtDpSTPYW57bzXriS1jv3vRp3fsMg5RIJE4IsCnX/mqz9TI5c347oNgNn/EmThhB6chPctApcySNmRTu76rz4fvD4czpyNdjyVFLR7HkFM+CjhP1YKFn1mOjYhwrTR9yWH33Fc1/2P1NvtwFsx2+yemha/hoGOqAnfF//strmgt/+uecZb7vzs+rvnjGnjMp5c3RtOdf85JIJOYHPAmAFaq1v76D4+e7Du1Tn0UfMwy6JjE6gtKRn+zwzoSl7HBmvF9tDg4z891HH+HyE3+D09uAc9UJcXxcfosOdHofcBT4cThdB84vS2CG+IhMDAB0je51Rf6xNwC/l7xwzHz6eUkkEvPBKev/rfqY9Svsv7nrX3YxHqt7g65JjI6gdOQnOeCs6KTNwaFjcUmZTs9+xzL7zR/lu755PjqeQU59aTqhnLbBy4xZcqTL+cY5xjv3Asj5893gSOdGJPHOPCIvC6NO/I3pyqefj0QiMX+or6F/on+9v7nwZ/+J9kXvWxh8TWJ0BKUjP9kBJ8a4Rsjh4Moy+4ZzuISunaZygEq3EJs+6rzGgOJs63TnMwYfcYzf+Hw8DQd49HOxixzL5/YbN6bwuXWc0w4MaoSjjzwTicSJAf2Oce9r6FN8LBMDbuuj/ecn5oegdOQnOdiZ4LRiMxuWnpmuTtc6Re94MePlEvz4HXm/M60dbLxQgvwWvsQnZ9U8N9J0HT8riOvjOOrnoGP334mq7EQiMT+gT7Uv21F/Gzg4T5wQgtKRn+TgrBajZu9Y7GRMV+djnB3QYTNZzdaXZvlZqwNy2K0xgJO1gQcQ5+GcvlF+xPmbOfa4t8+6brQ6YEXB4vUMvC2nvT6RSJwYYlUMfTVm5Exn/1I8ceIISkd+kkPPmcuBocO1oXc4n9lqaR3nWofEdXSOrSMdF4qD7RvFh6OVE67Pb8G0uN7B872+qIOuaX+PMnrySCQSJwT2KcRLH2vTYUfqcxPzR1A68kQikUgkOoigdOSJRCKRSHQQQenIE4lEIpHoIILSkScSiUQi0UEEpSNPJBKJRKKDCEpHnkgkEolEBxGUjjyRSCQSiQ4iKB15IpFIJBIdRNApHiYlJSUlJSV1jprm/wRt5FBhe37WDQAAAABJRU5ErkJggg==;" vertex="1" parent="1">
          <mxGeometry x="275" y="1237.17" width="30" height="29.88" as="geometry" />
        </mxCell>
      </root>
    </mxGraphModel>
  </diagram>
</mxfile>
